<svg width="32" height="32" viewBox="0 0 32 32" fill="#000000" xmlns="http://www.w3.org/2000/svg">
<path d="M14.9174 4.87501C15.3986 4.04166 16.6014 4.04166 17.0825 4.87501L18.3116 7.00396C18.4713 7.28051 18.732 7.48188 19.0327 7.58942C19.5831 7.78629 20.1193 8.03715 20.6187 8.3414C20.9211 8.52565 21.2836 8.59629 21.6257 8.50465L21.7537 8.47036C22.5779 8.24955 23.3321 9.00381 23.1113 9.82804C23.0166 10.1814 23.1071 10.5553 23.3206 10.8524C23.7819 11.4943 24.146 12.2235 24.4108 12.9671C24.5179 13.268 24.7194 13.5286 24.996 13.6883L27.1249 14.9174C27.9583 15.3986 27.9583 16.6014 27.1249 17.0825L24.9959 18.3117C24.7194 18.4713 24.5182 18.7321 24.4098 19.0324C24.2085 19.5905 23.9533 20.1228 23.6504 20.623C23.4693 20.9221 23.4027 21.2802 23.4932 21.6179L23.5255 21.7384C23.7481 22.5694 22.9876 23.3299 22.1566 23.1072C21.8115 23.0147 21.4456 23.0966 21.1539 23.303C20.5049 23.7622 19.7927 24.136 19.0325 24.4099C18.7321 24.5182 18.4713 24.7194 18.3116 24.996L17.0825 27.1249C16.6014 27.9583 15.3986 27.9583 14.9174 27.1249L13.6883 24.9959C13.5286 24.7194 13.2679 24.518 12.9673 24.4104C12.4179 24.2136 11.8805 23.9622 11.3816 23.6586C11.0789 23.4743 10.7162 23.4037 10.3739 23.4954L10.2628 23.5251C9.43088 23.748 8.66955 22.9871 8.89197 22.1551C8.98423 21.81 8.90239 21.4442 8.69622 21.1525C8.23806 20.5042 7.86405 19.7922 7.59008 19.0325C7.48176 18.7321 7.28052 18.4713 7.00399 18.3116L4.87501 17.0825C4.04166 16.6014 4.04166 15.3986 4.87501 14.9174L7.00398 13.6883C7.28052 13.5286 7.48175 13.2678 7.59008 12.9674C7.79132 12.4094 8.04653 11.8771 8.34944 11.377C8.53058 11.0779 8.5972 10.7197 8.50672 10.382L8.47447 10.2616C8.25183 9.4305 9.01233 8.67007 9.84337 8.89278C10.1885 8.98526 10.5544 8.90335 10.846 8.69699C11.4949 8.2379 12.2072 7.86403 12.9674 7.59003C13.2678 7.48176 13.5286 7.28052 13.6883 7.00398L14.9174 4.87501Z"/>
</svg>
