<svg width="32" height="32" viewBox="0 0 32 32" fill="#000000" xmlns="http://www.w3.org/2000/svg">
<path d="M16 4L18.3633 8.09351C19.1875 8.33944 19.9931 8.71398 20.6943 9.21484L23.023 8.591L22.4246 10.824C23.1107 11.6244 23.6066 12.6315 23.9065 13.6367L28 16L23.9065 18.3633C23.6555 19.2043 23.2737 19.9893 22.7852 20.6943L23.409 23.023L21.176 22.4246C20.3528 23.0896 19.4013 23.5968 18.3633 23.9065L16 28L13.6367 23.9065C12.8152 23.6613 12.0047 23.2845 11.3057 22.7852L8.97699 23.409L9.57428 21.1747C8.91144 20.3528 8.40314 19.4008 8.09351 18.3633L4 16L8.09351 13.6367C8.34454 12.7955 8.72614 12.0107 9.21484 11.3057L8.591 8.97699L10.824 9.57538C11.6468 8.91079 12.5987 8.40326 13.6367 8.09351L16 4Z"/>
</svg>
