<svg width="24" height="29" viewBox="0 0 24 29" fill="#000000" xmlns="http://www.w3.org/2000/svg">
<path d="M3.04044 0.959641C2.64992 0.569117 2.01675 0.569117 1.62623 0.959641C1.2357 1.35017 1.2357 1.98333 1.62623 2.37385L2.95956 3.70719C3.35008 4.09771 3.98325 4.09771 4.37377 3.70719C4.7643 3.31666 4.7643 2.6835 4.37377 2.29297L3.04044 0.959641Z"/>
<path d="M17.7071 2.37385C18.0976 1.98333 18.0976 1.35017 17.7071 0.959641C17.3166 0.569117 16.6834 0.569117 16.2929 0.959641L14.9596 2.29297C14.569 2.6835 14.569 3.31666 14.9596 3.70719C15.3501 4.09771 15.9832 4.09771 16.3738 3.70719L17.7071 2.37385Z"/>
<path d="M18.3333 6.00008H17C16.4477 6.00008 16 6.4478 16 7.00008C16 7.55237 16.4477 8.00008 17 8.00008H18.3333C18.8856 8.00008 19.3333 7.55237 19.3333 7.00008C19.3333 6.4478 18.8856 6.00008 18.3333 6.00008Z"/>
<path d="M1 7.33341C0.447715 7.33341 0 7.78113 0 8.33341C0 8.8857 0.447715 9.33341 1 9.33341H2.33333C2.88562 9.33341 3.33333 8.8857 3.33333 8.33341C3.33333 7.78113 2.88562 7.33341 2.33333 7.33341H1Z"/>
<path d="M20.2522 12.9192C19.8771 13.2943 19.6663 14.4696 19.6663 15V13C19.6663 12.4696 19.4555 11.9609 19.0805 11.5858C18.7054 11.2107 18.1967 11 17.6663 11C17.1358 11 16.6271 11.2107 16.252 11.5858C15.877 11.9609 15.6663 14.4696 15.6663 15V11.6667C15.6663 11.1362 15.4555 10.6275 15.0805 10.2525C14.7054 9.87738 14.1967 9.66667 13.6663 9.66667C13.1358 9.66667 12.6271 9.87738 12.252 10.2525C11.877 10.6275 11.6663 11.1362 11.6663 11.6667V5C11.6663 4.46957 11.4555 3.96086 11.0805 3.58579C10.7054 3.21071 10.1967 3 9.66626 3C9.13583 3 8.62712 3.21071 8.25205 3.58579C7.87697 3.96086 7.66626 4.46957 7.66626 5V16.3333L5.70642 14.3734C5.31381 13.9813 4.80142 13.7315 4.25064 13.6639C3.69985 13.5962 3.14226 13.7146 2.66642 14.0001C2.21969 14.2679 1.89506 14.6995 1.7616 15.2029C1.62813 15.7064 1.69636 16.2421 1.95176 16.6961C4.45709 21.1494 5.91709 23.6947 6.33309 24.3334L6.59442 24.7334C7.32311 25.8399 8.3152 26.7481 9.4816 27.3765C10.6472 28.0044 11.9504 28.3332 13.2744 28.3334H15.6664C17.7882 28.3334 19.823 27.4906 21.3233 25.9903C22.8236 24.49 23.6664 22.4551 23.6664 20.3334V14.3334C23.6664 13.803 23.4557 13.2943 23.0806 12.9192C22.7056 12.5441 22.1969 12.3334 21.6664 12.3334C21.136 12.3334 20.6273 12.5441 20.2522 12.9192Z"/>
</svg>
