<svg width="32" height="32" viewBox="0 0 32 32" fill="#000000" xmlns="http://www.w3.org/2000/svg">
<path d="M18.205 20.605C18.676 21.076 19.4406 21.0726 19.9074 20.5974C20.3684 20.1282 20.3651 19.3751 19.9 18.91L17.5661 16.5761C17.3317 16.3417 17.2 16.0238 17.2 15.6922V12.4C17.2 11.7373 16.6627 11.2 16 11.2C15.3373 11.2 14.8 11.7373 14.8 12.4V16.6822C14.8 17.0138 14.9317 17.3317 15.1661 17.5661L18.205 20.605ZM14.8 7.6C14.8 8.26274 15.3373 8.8 16 8.8C16.6627 8.8 17.2 8.26274 17.2 7.6C17.2 6.93726 16.6627 6.4 16 6.4C15.3373 6.4 14.8 6.93726 14.8 7.6ZM23.2 16C23.2 16.6627 23.7373 17.2 24.4 17.2C25.0627 17.2 25.6 16.6627 25.6 16C25.6 15.3373 25.0627 14.8 24.4 14.8C23.7373 14.8 23.2 15.3373 23.2 16ZM14.8 24.4C14.8 25.0627 15.3373 25.6 16 25.6C16.6627 25.6 17.2 25.0627 17.2 24.4C17.2 23.7373 16.6627 23.2 16 23.2C15.3373 23.2 14.8 23.7373 14.8 24.4ZM6.4 16C6.4 16.6627 6.93726 17.2 7.6 17.2C8.26274 17.2 8.8 16.6627 8.8 16C8.8 15.3373 8.26274 14.8 7.6 14.8C6.93726 14.8 6.4 15.3373 6.4 16ZM16 28C14.34 28 12.78 27.6848 11.32 27.0544C9.86 26.424 8.59 25.5692 7.51 24.49C6.43 23.41 5.5752 22.14 4.9456 20.68C4.316 19.22 4.0008 17.66 4 16C4 14.34 4.3152 12.78 4.9456 11.32C5.576 9.86 6.4308 8.59 7.51 7.51C8.59 6.43 9.86 5.5752 11.32 4.9456C12.78 4.316 14.34 4.0008 16 4C17.66 4 19.22 4.3152 20.68 4.9456C22.14 5.576 23.41 6.4308 24.49 7.51C25.57 8.59 26.4252 9.86 27.0556 11.32C27.686 12.78 28.0008 14.34 28 16C28 17.66 27.6848 19.22 27.0544 20.68C26.424 22.14 25.5692 23.41 24.49 24.49C23.41 25.57 22.14 26.4252 20.68 27.0556C19.22 27.686 17.66 28.0008 16 28Z"/>
</svg>
