<svg width="32" height="32" viewBox="0 0 32 32" fill="#000000" xmlns="http://www.w3.org/2000/svg">
<path d="M19.06 21.46L20.74 19.75L17.2 16.21V11.2H14.8V17.2L19.06 21.46ZM14.8 8.8H17.2V6.4H14.8V8.8ZM23.2 17.2H25.6V14.8H23.2V17.2ZM14.8 25.6H17.2V23.2H14.8V25.6ZM6.4 17.2H8.8V14.8H6.4V17.2ZM16 28C14.34 28 12.78 27.6848 11.32 27.0544C9.86 26.424 8.59 25.5692 7.51 24.49C6.43 23.41 5.5752 22.14 4.9456 20.68C4.316 19.22 4.0008 17.66 4 16C4 14.34 4.3152 12.78 4.9456 11.32C5.576 9.86 6.4308 8.59 7.51 7.51C8.59 6.43 9.86 5.5752 11.32 4.9456C12.78 4.316 14.34 4.0008 16 4C17.66 4 19.22 4.3152 20.68 4.9456C22.14 5.576 23.41 6.4308 24.49 7.51C25.57 8.59 26.4252 9.86 27.0556 11.32C27.686 12.78 28.0008 14.34 28 16C28 17.66 27.6848 19.22 27.0544 20.68C26.424 22.14 25.5692 23.41 24.49 24.49C23.41 25.57 22.14 26.4252 20.68 27.0556C19.22 27.686 17.66 28.0008 16 28Z"/>
</svg>
