<svg width="48" height="48" viewBox="0 0 48 48" fill="#000000" xmlns="http://www.w3.org/2000/svg">
<path d="M13.5002 37.5C12.6718 38.3284 11.3287 38.3284 10.5002 37.5C9.6718 36.6716 9.6718 35.3284 10.5002 34.5L18.8789 26.1213C20.0505 24.9497 20.0505 23.0502 18.8789 21.8787L10.5002 13.5C9.6718 12.6716 9.6718 11.3284 10.5002 10.5C11.3287 9.67156 12.6718 9.67156 13.5002 10.5L21.8789 18.8787C23.0505 20.0502 24.95 20.0502 26.1215 18.8787L34.5002 10.5C35.3287 9.67156 36.6718 9.67156 37.5002 10.5C38.3287 11.3284 38.3287 12.6716 37.5002 13.5L29.1215 21.8787C27.95 23.0502 27.95 24.9497 29.1215 26.1213L37.5002 34.5C38.3287 35.3284 38.3287 36.6716 37.5002 37.5C36.6718 38.3284 35.3287 38.3284 34.5002 37.5L26.1215 29.1213C24.95 27.9497 23.0505 27.9497 21.8789 29.1213L13.5002 37.5Z"/>
</svg>
