<svg width="32" height="32" viewBox="0 0 32 32" fill="#000000" xmlns="http://www.w3.org/2000/svg">
<path fill-rule="evenodd" clip-rule="evenodd" d="M14.5 17.689V24.5H22.75C23.4404 24.5 24 25.0596 24 25.75C24 26.4404 23.4404 27 22.75 27H9.25C8.55964 27 8 26.4404 8 25.75C8 25.0596 8.55964 24.5 9.25 24.5H12V16.439V6.25247V6.25C12 6.23178 12.0004 6.21365 12.0012 6.19562C12.018 5.78452 12.2172 5.45786 12.4991 5.25058C12.7082 5.09325 12.9682 5 13.25 5C13.252 5 13.2539 5 13.2559 5.00001C13.5335 4.99872 13.8146 5.08936 14.0498 5.28932C14.1308 5.35681 14.2031 5.43435 14.2648 5.52003L22.3753 15.6581C23.0301 16.4766 22.4474 17.689 21.3992 17.689H14.5Z"/>
</svg>
