<svg width="32" height="32" viewBox="0 0 32 32" fill="#000000" xmlns="http://www.w3.org/2000/svg">
<path d="M29 27.75C29 28.4404 28.4404 29 27.75 29H25.25C24.5596 29 24 28.4404 24 27.75V5.5C24 4.11929 25.1193 3 26.5 3C27.8807 3 29 4.11929 29 5.5V27.75ZM15 27.75C15 28.4404 14.4404 29 13.75 29H11.25C10.5596 29 10 28.4404 10 27.75V15.5C10 14.1193 11.1193 13 12.5 13C13.8807 13 15 14.1193 15 15.5V27.75ZM8 27.75C8 28.4404 7.44036 29 6.75 29H4.25C3.55964 29 3 28.4404 3 27.75V20.5C3 19.1193 4.11929 18 5.5 18C6.88071 18 8 19.1193 8 20.5V27.75Z"/>
<path d="M17 27.75C17 28.4404 17.5596 29 18.25 29H20.75C21.4404 29 22 28.4404 22 27.75V10.5C22 9.11929 20.8807 8 19.5 8C18.1193 8 17 9.11929 17 10.5V27.75Z"/>
</svg>
