<svg width="48" height="48" viewBox="0 0 48 48" fill="#000000" xmlns="http://www.w3.org/2000/svg">
<path d="M13.0955 14.3217C10.8108 16.6062 0.823039 30.8888 9.45267 39.5387C18.0782 48.1908 32.3198 38.175 34.6085 35.8864C36.8911 33.602 33.9264 26.9139 27.9866 20.9587C22.0428 14.9995 15.3802 12.025 13.0955 14.3217ZM31.9594 33.9C31.2833 34.5696 26.0644 32.967 21.0369 27.9224C16.0135 22.8819 14.4069 17.6474 15.0829 16.9737C15.7508 16.2959 20.9758 17.9067 25.9972 22.9472C31.0288 27.9837 32.6313 33.2222 31.9594 33.9ZM33.7065 17.2125L37.5835 13.3214C37.9653 12.9386 38.1798 12.4194 38.1798 11.878C38.1798 11.3366 37.9653 10.8174 37.5835 10.4346C37.2017 10.0518 36.6838 9.83678 36.1438 9.83678C35.6039 9.83678 35.086 10.0518 34.7042 10.4346L30.8272 14.3258C30.4454 14.7086 30.2309 15.2278 30.2309 15.7692C30.2309 16.0372 30.2835 16.3027 30.3859 16.5503C30.4882 16.798 30.6381 17.023 30.8272 17.2125C31.0163 17.4021 31.2407 17.5524 31.4877 17.655C31.7347 17.7576 31.9995 17.8104 32.2668 17.8104C32.8068 17.8104 33.3246 17.5953 33.7065 17.2125ZM24.9302 12.7579C25.1639 12.8882 25.4209 12.9711 25.6866 13.0018C25.9523 13.0325 26.2213 13.0105 26.4785 12.9369C26.7357 12.8634 26.9758 12.7397 27.1853 12.5731C27.3948 12.4065 27.5696 12.2001 27.6995 11.9658L29.9129 8.0338C30.1754 7.56057 30.2396 7.00219 30.0914 6.4815C29.9433 5.96081 29.5949 5.52045 29.1229 5.25731C28.6509 4.99417 28.0939 4.92979 27.5746 5.07834C27.0552 5.22689 26.616 5.5762 26.3536 6.04943L24.1401 9.98142C24.0102 10.2157 23.9275 10.4734 23.8969 10.7398C23.8663 11.0061 23.8882 11.2759 23.9616 11.5337C24.035 11.7915 24.1583 12.0324 24.3245 12.2424C24.4907 12.4524 24.6965 12.6276 24.9302 12.7579ZM42.7433 18.9152C42.6136 18.6806 42.439 18.4741 42.2295 18.3073C42.02 18.1405 41.7798 18.0168 41.5226 17.9432C41.2653 17.8697 40.9962 17.8477 40.7304 17.8785C40.4647 17.9094 40.2077 17.9925 39.974 18.1231L36.0237 20.2891C35.79 20.4194 35.5842 20.5946 35.418 20.8046C35.2518 21.0147 35.1285 21.2555 35.0551 21.5133C34.9818 21.7711 34.9598 22.0409 34.9904 22.3073C35.021 22.5736 35.1037 22.8313 35.2336 23.0656C35.3636 23.2999 35.5383 23.5063 35.7478 23.6729C35.9573 23.8395 36.1975 23.9631 36.4547 24.0367C36.7118 24.1102 36.9809 24.1323 37.2466 24.1016C37.5122 24.0709 37.7692 23.988 38.0029 23.8577L41.9533 21.6917C42.187 21.5614 42.3928 21.3862 42.559 21.1762C42.7252 20.9661 42.8485 20.7253 42.9219 20.4675C42.9952 20.2097 43.0172 19.9399 42.9866 19.6735C42.956 19.4072 42.8733 19.1495 42.7433 18.9152Z"/>
</svg>
