<svg width="48" height="48" viewBox="0 0 48 48" fill="#000000" xmlns="http://www.w3.org/2000/svg">
<path d="M33.0561 22.2631C36.0501 26.3218 36.9748 29.8437 36.4166 30.4041C35.8561 30.9602 32.3361 30.0377 28.273 27.0438L16.3615 38.9568C25.3845 42.9184 37.1128 34.6072 39.2209 32.4992C41.2148 30.5119 39.43 25.3669 35.2202 20.0969L33.0561 22.2631ZM21.1274 19.5624C18.7584 15.9887 18.0428 13.0466 18.5537 12.5358C19.0559 12.0314 22.0025 12.7427 25.5742 15.1158L27.7793 12.9065C22.8992 9.29832 18.3058 7.87575 16.4477 9.74018C14.4474 11.7361 6.8599 22.4075 9.48318 31.2016L21.1274 19.5624ZM42.368 5.63197C42.168 5.43163 41.9304 5.2727 41.6689 5.16426C41.4074 5.05582 41.1271 5 40.844 5C40.5609 5 40.2806 5.05582 40.0191 5.16426C39.7576 5.2727 39.5201 5.43163 39.3201 5.63197L5.63125 39.321C5.22707 39.7252 5 40.2733 5 40.8449C5 41.4165 5.22707 41.9646 5.63125 42.3688C6.03543 42.7729 6.58361 43 7.15521 43C7.7268 43 8.27499 42.7729 8.67917 42.3688L42.368 8.67972C42.5683 8.47972 42.7273 8.24219 42.8357 7.98071C42.9442 7.71922 43 7.43892 43 7.15584C43 6.87277 42.9442 6.59247 42.8357 6.33098C42.7273 6.0695 42.5683 5.83196 42.368 5.63197Z"/>
</svg>
