<svg width="48" height="48" viewBox="0 0 48 48" fill="#000000" xmlns="http://www.w3.org/2000/svg">
<path d="M26 6C26 4.89543 25.1046 4 24 4C22.8954 4 22 4.89543 22 6V8C22 9.10457 22.8954 10 24 10C25.1046 10 26 9.10457 26 8V6Z"/>
<path fill-rule="evenodd" clip-rule="evenodd" d="M43.4142 4.58579C42.6332 3.80474 41.3668 3.80474 40.5858 4.58579L29.5135 15.6581C28.9834 15.308 28.4198 15.0084 27.83 14.7641C26.6168 14.2616 25.3164 14.0029 24.0031 14.0029C22.6899 14.0029 21.3895 14.2616 20.1762 14.7641C18.9629 15.2667 17.8605 16.0033 16.9319 16.9319C16.0033 17.8605 15.2667 18.9629 14.7641 20.1762C14.2616 21.3895 14.0029 22.6899 14.0029 24.0031C14.0029 25.3164 14.2616 26.6168 14.7641 27.83C15.0084 28.4198 15.308 28.9834 15.6581 29.5135L4.58579 40.5858C3.80474 41.3668 3.80474 42.6332 4.58579 43.4142C5.36683 44.1953 6.63317 44.1953 7.41421 43.4142L11.3535 39.475C13.3711 41.1227 15.6965 42.3646 18.2016 43.1241C21.3463 44.0775 24.6775 44.2413 27.9005 43.6011C31.1236 42.961 34.1393 41.5365 36.6809 39.4537C39.2225 37.3709 41.2118 34.6939 42.4729 31.6595C42.7824 30.9148 42.6143 30.0571 42.0466 29.4842C41.479 28.9114 40.6228 28.7355 39.8753 29.0382C37.2027 30.1205 34.2461 30.2834 31.4707 29.5015C29.0537 28.8205 26.8937 27.4567 25.2437 25.5847L30.9763 19.8521C31.0097 19.8228 31.0425 19.7922 31.0743 19.7603C31.1062 19.7285 31.1368 19.6957 31.1661 19.6623L43.4142 7.41421C44.1953 6.63317 44.1953 5.36683 43.4142 4.58579ZM26.5848 18.5867C26.4909 18.542 26.3957 18.4996 26.2993 18.4597C25.5713 18.1581 24.7911 18.0029 24.0031 18.0029C23.2152 18.0029 22.4349 18.1581 21.707 18.4597C20.979 18.7612 20.3175 19.2032 19.7603 19.7603C19.2032 20.3175 18.7612 20.979 18.4597 21.707C18.1581 22.4349 18.0029 23.2152 18.0029 24.0031C18.0029 24.7911 18.1581 25.5713 18.4597 26.2993C18.4996 26.3957 18.542 26.4909 18.5867 26.5848L26.5848 18.5867ZM19.6623 31.1661C19.6957 31.1368 19.7285 31.1062 19.7603 31.0743C19.7922 31.0425 19.8228 31.0097 19.8521 30.9763L22.411 28.4174C24.5464 30.7689 27.3067 32.4841 30.3859 33.3516C32.4014 33.9194 34.4898 34.1062 36.5473 33.9177C35.839 34.8121 35.0345 35.6314 34.1456 36.3598C32.1123 38.0261 29.6997 39.1656 27.1213 39.6778C24.5428 40.1899 21.8779 40.0589 19.3622 39.2962C17.4876 38.7279 15.739 37.822 14.1999 36.6285L19.6623 31.1661Z"/>
<path d="M12.6142 9.78579C11.8332 9.00474 10.5668 9.00474 9.78579 9.78579C9.00474 10.5668 9.00474 11.8332 9.78579 12.6142L11.1858 14.0142C11.9668 14.7953 13.2332 14.7953 14.0142 14.0142C14.7953 13.2332 14.7953 11.9668 14.0142 11.1858L12.6142 9.78579Z"/>
<path d="M6 22C4.89543 22 4 22.8954 4 24C4 25.1046 4.89543 26 6 26H8C9.10457 26 10 25.1046 10 24C10 22.8954 9.10457 22 8 22H6Z"/>
</svg>
