<svg width="43" height="80" viewBox="0 0 43 80" fill="none" xmlns="http://www.w3.org/2000/svg">
<g clip-path="url(#clip0_278_3723)">
<path fill-rule="evenodd" clip-rule="evenodd" d="M19.35 80V30H23.35V80H19.35Z" fill="#60B964"/>
<path d="M21.85 54.5C23.85 39 36.35 37.5 41.85 37.5C41.35 47 30.85 54.5 21.85 54.5Z" fill="#60B964"/>
<path d="M21.2643 64.6354C20.8538 51.7645 10.4064 49.4692 5.75501 49.0001C5.39275 56.8267 13.6529 63.8677 21.2643 64.6354Z" fill="#60B964"/>
<path d="M28.3243 13.4743C39.2713 -5.74296 16.7206 -2.03054 18.91 11.2905C15.188 -9.01864 -2.10822 2.11865 13.4365 18.2786C-3.85974 3.86567 -4.95443 37.0591 11.685 28.7608C-4.95443 39.2429 23.2887 58.0234 20.8804 34.8753C23.9456 56.2764 54.5971 27.8872 30.7327 24.83C53.9403 27.2321 39.2713 -2.68567 28.3243 13.4743Z" fill="white"/>
<ellipse cx="20.1738" cy="23.1035" rx="5.91136" ry="5.8962" fill="#FFC5B9"/>
</g>
<defs>
<clipPath id="clip0_278_3723">
<rect width="43" height="80" fill="white"/>
</clipPath>
</defs>
</svg>
