<svg width="102" height="85" viewBox="0 0 102 85" fill="none" xmlns="http://www.w3.org/2000/svg">
<path d="M4 0C1.79086 0 0 1.78966 0 3.99733V6.15192C0 8.35959 1.79086 10.1493 4 10.1493H6.375L21.671 81.8362C22.0647 83.6812 23.6954 85 25.5831 85H76.4169C78.3046 85 79.9353 83.6812 80.329 81.8362L95.625 10.1492L98 10.1493C100.209 10.1493 102 8.35959 102 6.15192V3.99733C102 1.78967 100.209 0 98 0H4Z" fill="#BE7769"/>
<path d="M4 0H19.9501L25.9416 10.1493H19.0055L56.9516 85H25.5831C23.6954 85 22.0647 83.6812 21.671 81.8362L6.375 10.1493H4C1.79086 10.1493 0 8.35959 0 6.15192V3.99733C0 1.78966 1.79086 0 4 0Z" fill="#AA6355"/>
</svg>
