<svg width="43" height="83" viewBox="0 0 43 83" fill="none" xmlns="http://www.w3.org/2000/svg">
<g clip-path="url(#clip0_278_3729)">
<path fill-rule="evenodd" clip-rule="evenodd" d="M20.0866 7.77081C20.5773 5.91691 21.3619 4.07727 22.6621 1.75757L24.1909 2.61008C22.9385 4.84457 22.2225 6.54545 21.7801 8.21677C21.3361 9.89407 21.1571 11.5795 21.0164 13.8126L19.2684 13.7031C19.4107 11.4432 19.5975 9.61873 20.0866 7.77081ZM13.688 13.0211C13.2456 11.3498 12.5297 9.64888 11.2772 7.4144L12.806 6.56188C14.1062 8.88159 14.8908 10.7212 15.3815 12.5751C15.8707 14.423 16.0574 16.2475 16.1998 18.5074L14.4517 18.6169C14.311 16.3838 14.132 14.6984 13.688 13.0211ZM27.5305 13.8854C28.0213 12.0315 28.8058 10.1919 30.106 7.87215L31.6348 8.72466C30.3824 10.9591 29.6664 12.66 29.224 14.3314C28.78 16.0086 28.601 17.6941 28.4604 19.9272L26.7123 19.8177C26.8547 17.5578 27.0414 15.7333 27.5305 13.8854Z" fill="white"/>
<path fill-rule="evenodd" clip-rule="evenodd" d="M19.35 83V29H23.35V83H19.35Z" fill="#60B964"/>
<ellipse cx="11.8227" cy="6.11456" rx="2.18939" ry="2.18378" fill="#FF9580"/>
<ellipse cx="23.2076" cy="2.18378" rx="2.18939" ry="2.18378" fill="#FF9580"/>
<ellipse cx="31.5273" cy="8.2984" rx="2.18939" ry="2.18378" fill="#FF9580"/>
<path d="M20.3614 45.8594C8.53863 45.8594 4.37878 27.5156 4.37878 13.5394C10.5091 20.7459 17.2962 11.3557 20.3614 5.24109C21.675 8.73514 29.7758 22.7113 40.7227 11.574C40.7227 31.6648 32.1841 45.8594 20.3614 45.8594Z" fill="#FFC5B9"/>
<path d="M20.0712 80.7451C14.3672 64.975 3.46293 43.171 11.875 20.0001C11.1069 40.2596 15.8591 45.157 18.5732 53.3895C21.0346 60.8554 26.8565 70.757 20.0712 80.7451Z" fill="#60B964"/>
<path d="M21.5039 75.0066C25.4197 66.2658 32.5752 54.4739 28.6377 40C28.2792 52.0154 25.343 54.4403 23.4509 59.0288C21.7351 63.1901 17.9835 68.4605 21.5039 75.0066Z" fill="#60B964"/>
</g>
<defs>
<clipPath id="clip0_278_3729">
<rect width="43" height="83" fill="white"/>
</clipPath>
</defs>
</svg>
