<svg width="1139" height="486" viewBox="0 0 1139 486" xmlns="http://www.w3.org/2000/svg">
<path fill-rule="evenodd" clip-rule="evenodd" d="M147.265 343.285L150.602 329.381C150.475 328.176 148.933 325.182 143.789 322.846C137.36 319.927 138.089 317.285 133.362 308.108C128.634 298.932 129.886 265.98 136.559 264.033C143.233 262.087 159.223 261.67 166.175 267.509C173.127 273.349 189.95 315.338 196.346 329.381C202.742 343.424 214.838 360.248 223.597 361.638C232.357 363.028 416.304 377.906 446.753 377.906C442.304 362.75 438.967 319.37 439.523 310.055C440.08 300.739 443.973 255.274 456.347 248.878C468.721 242.482 511.406 246.932 518.08 250.964C524.754 254.996 547.417 304.076 550.337 314.782C553.257 325.488 558.957 342.868 568.273 349.264C577.588 355.659 621.107 359.97 632.647 356.772C644.188 353.574 648.915 344.953 637.375 341.06C625.835 337.167 619.022 324.654 618.744 300.878C618.574 286.375 630.148 283.306 636.961 282.96C627.084 280.967 613.921 271.895 621.107 246.932C629.032 219.402 640.434 221.627 654.476 217.038C665.711 213.368 801.162 214.304 867.483 215.231C940.478 215.463 1088.83 217.011 1098.29 221.349C1110.1 226.771 1115.11 239.006 1108.44 264.868C1113.3 257.081 1116.36 238.172 1111.08 212.033C1105.79 185.894 1036.83 173.798 1028.21 172.129C1019.59 170.461 951.601 164.482 937.697 166.568C931.579 164.76 910.445 159.894 893.066 161.701C865.258 152.803 763.76 148.354 744.573 148.632C738.344 140.957 705.642 109.469 690.07 94.6849C687.289 91.4871 679.17 83.5341 668.936 77.3052C642.797 59.9254 584.262 55.7543 501.952 54.0858C419.641 52.4174 335.245 66.1821 303.822 72.995C272.4 79.8079 194.538 144.878 179.8 159.755C165.479 161.284 73.1581 191.594 68.7089 193.541C64.2597 195.488 61.896 197.295 60.0885 199.798C58.281 202.3 56.0564 249.851 58.9762 264.033C63.7035 276.825 76.634 284.75 86.6447 301.296C96.6555 317.841 119.736 336.889 122.656 339.114C124.991 340.894 140.035 342.636 147.265 343.285ZM287.416 100.664C278.962 106.114 249.319 133.523 235.555 146.546C242.599 153.266 258.996 166.985 268.229 168.097C279.769 169.487 355.266 155.862 375.705 153.498C374.871 146.407 376.4 85.0913 374.176 82.7277C371.951 80.364 374.593 80.7811 343.448 82.7277C312.304 84.6742 297.983 93.8507 287.416 100.664ZM538.101 75.7758C512.936 74.8025 398.368 78.8346 393.78 81.6154C393.78 87.455 397.951 115.124 399.063 150.717C422.755 143.932 553.535 145.48 615.963 147.102C616.148 147.334 616.519 147.408 616.519 145.851C644.744 144.322 709.396 143.765 740.541 148.632C713.429 118.739 666.295 84.5352 659.621 82.0325C652.947 79.5298 563.267 76.749 538.101 75.7758Z" style="mix-blend-mode:overlay"/>
</svg>
