<svg width="1681" height="1073" viewBox="0 0 1681 1073" xmlns="http://www.w3.org/2000/svg">
<path fill-rule="evenodd" clip-rule="evenodd" d="M98.0619 544.454C102.709 463.123 113.166 431.985 132.918 406.424C152.67 380.862 189.618 355.069 224.474 346.006C257.703 332.528 323.233 321.607 328.113 320.445C332.993 319.283 332.761 315.333 335.317 314.403C337.362 313.66 344.999 314.093 348.562 314.403C358.787 312.931 380.816 308.873 387.136 304.411C395.037 298.834 389.925 296.743 392.016 295.116C394.108 293.49 402.938 289.074 404.332 286.054C405.726 283.033 474.742 148.255 494.726 122.462C514.71 96.668 531.673 87.6053 544.919 83.8873C558.164 80.1693 700.145 61.8117 754.521 60.6498C808.897 59.488 1108.89 57.3966 1150.72 81.3312C1192.55 105.266 1202.54 106.892 1206.03 109.681C1209.51 112.469 1298.98 283.497 1300.6 284.195C1302.23 284.892 1302.46 291.398 1303.62 294.651C1304.78 297.905 1348.47 316.959 1361.48 319.283C1374.5 321.607 1478.37 340.662 1500.91 354.372C1523.45 368.082 1573.41 398.523 1587.59 507.274C1601.76 616.026 1572.02 654.6 1560.86 671.099C1549.71 687.597 1516.25 745.923 1460.71 781.709C1435.61 797.046 1432.59 805.876 1427.71 807.735C1422.83 800.067 1432.36 769.858 1391.46 769.393C1358.74 769.022 1349.79 796.968 1349.4 810.988L1295.72 865.364L1005.95 868.385L841.662 881.166L392.016 857.928L318.121 814.939C328.655 800.764 337.919 772.368 290.701 772.182C243.482 771.996 253.211 798.595 263.978 811.918L249.338 797.511C224.784 781.477 171.818 743.321 156.388 718.968C137.101 688.527 92.2525 635.081 98.0619 544.454ZM250.732 741.973C238.462 724.87 242.366 705.258 245.852 697.589C249.012 693.686 253.365 692.4 255.147 692.245C281.328 690.541 336.339 688.713 346.935 695.033C360.18 702.934 362.737 720.827 365.06 727.798C367.384 734.769 359.948 745.459 354.836 746.853C349.724 748.247 256.309 748.712 250.732 741.973ZM1324.77 747.55C1322.68 747.085 1316.87 743.832 1319.19 724.313C1321.52 710.602 1333.83 696.66 1338.25 696.66C1342.66 696.66 1418.18 692.942 1427.71 695.266C1437.24 697.589 1445.14 706.187 1444.91 719.2C1444.67 732.213 1433.75 745.691 1426.55 747.55C1419.35 749.409 1326.86 748.015 1324.77 747.55ZM1372.17 652.974C1312.45 652.509 1282.48 638.799 1268.53 616.955C1207.65 628.574 952.736 631.827 913.697 631.827C897.664 646.699 858.392 652.276 841.662 653.671C824.931 655.065 797.975 645.305 776.132 631.827C757.542 633.919 432.217 613.702 417.345 612.54C402.473 611.378 365.06 629.736 346.935 638.102C328.81 646.467 205.186 651.579 184.737 629.736C178.463 620.673 160.803 510.295 177.766 502.395C194.73 494.494 346.935 502.395 368.546 502.395C388.53 496.818 778.455 480.551 839.57 487.29C884.558 480.598 1152.04 490.079 1280.15 495.656C1346.38 495.268 1480 495.423 1484.64 499.141C1490.45 503.789 1500.91 539.575 1500.91 574.896C1500.91 610.217 1485.11 647.861 1468.38 652.974C1451.65 658.086 1431.89 653.438 1372.17 652.974ZM505.415 124.088C482.177 167.93 433.379 259.33 424.084 274.202C433.766 273.195 458.522 269.927 480.086 264.907C501.65 259.888 607.737 254.915 658.085 253.056L678.534 240.043C698.673 238.881 743.553 236.279 761.957 235.163C784.962 233.769 929.731 242.832 975.044 243.994C1011.29 244.923 1127.56 256.31 1181.16 261.887L1202.77 257.936C1203.86 260.725 1208.12 267.092 1216.48 270.252C1224.85 273.412 1267.37 280.864 1287.59 284.195C1265.51 248.951 1215.69 166.752 1193.01 119.905C1151.18 105.266 872.102 98.9917 843.288 98.9917C814.473 98.9917 658.55 102.013 614.166 103.407C578.659 104.522 526.871 117.659 505.415 124.088Z" style="mix-blend-mode:overlay"/>
</svg>
