<svg width="40" height="40" viewBox="0 0 40 40" fill="none" xmlns="http://www.w3.org/2000/svg">
<path d="M14.3856 12.3927L20 18.0071L25.5853 12.4218C25.7087 12.2905 25.8573 12.1854 26.0222 12.113C26.1872 12.0405 26.3651 12.0021 26.5453 12C26.931 12 27.301 12.1532 27.5737 12.426C27.8465 12.6988 27.9998 13.0687 27.9998 13.4545C28.0032 13.6328 27.9701 13.81 27.9025 13.975C27.835 14.1401 27.7345 14.2897 27.607 14.4145L21.949 19.9998L27.607 25.6578C27.8468 25.8923 27.9873 26.2099 27.9998 26.545C27.9998 26.9308 27.8465 27.3007 27.5737 27.5735C27.301 27.8463 26.931 27.9995 26.5453 27.9995C26.3599 28.0072 26.1749 27.9763 26.0022 27.9087C25.8294 27.8411 25.6726 27.7383 25.5417 27.6068L20 21.9924L14.4002 27.5923C14.2773 27.7192 14.1304 27.8205 13.9682 27.8904C13.8059 27.9603 13.6314 27.9974 13.4547 27.9995C13.069 27.9995 12.699 27.8463 12.4263 27.5735C12.1535 27.3007 12.0002 26.9308 12.0002 26.545C11.9968 26.3667 12.0299 26.1896 12.0975 26.0245C12.165 25.8594 12.2655 25.7099 12.393 25.5851L18.051 19.9998L12.393 14.3417C12.1532 14.1072 12.0127 13.7896 12.0002 13.4545C12.0002 13.0687 12.1535 12.6988 12.4263 12.426C12.699 12.1532 13.069 12 13.4547 12C13.8038 12.0044 14.1384 12.1455 14.3856 12.3927Z" fill="black"/>
<path d="M14.3856 12.3927L20 18.0071L25.5853 12.4218C25.7087 12.2905 25.8573 12.1854 26.0222 12.113C26.1872 12.0405 26.3651 12.0021 26.5453 12C26.931 12 27.301 12.1532 27.5737 12.426C27.8465 12.6988 27.9998 13.0687 27.9998 13.4545C28.0032 13.6328 27.9701 13.81 27.9025 13.975C27.835 14.1401 27.7345 14.2897 27.607 14.4145L21.949 19.9998L27.607 25.6578C27.8468 25.8923 27.9873 26.2099 27.9998 26.545C27.9998 26.9308 27.8465 27.3007 27.5737 27.5735C27.301 27.8463 26.931 27.9995 26.5453 27.9995C26.3599 28.0072 26.1749 27.9763 26.0022 27.9087C25.8294 27.8411 25.6726 27.7383 25.5417 27.6068L20 21.9924L14.4002 27.5923C14.2773 27.7192 14.1304 27.8205 13.9682 27.8904C13.8059 27.9603 13.6314 27.9974 13.4547 27.9995C13.069 27.9995 12.699 27.8463 12.4263 27.5735C12.1535 27.3007 12.0002 26.9308 12.0002 26.545C11.9968 26.3667 12.0299 26.1896 12.0975 26.0245C12.165 25.8594 12.2655 25.7099 12.393 25.5851L18.051 19.9998L12.393 14.3417C12.1532 14.1072 12.0127 13.7896 12.0002 13.4545C12.0002 13.0687 12.1535 12.6988 12.4263 12.426C12.699 12.1532 13.069 12 13.4547 12C13.8038 12.0044 14.1384 12.1455 14.3856 12.3927Z" fill="url(#paint0_linear_404_4160)"/>
<path fill-rule="evenodd" clip-rule="evenodd" d="M2 20C2 29.9411 10.0589 38 20 38C29.9411 38 38 29.9411 38 20C38 10.0589 29.9411 2 20 2C10.0589 2 2 10.0589 2 20ZM20 0C8.95431 0 0 8.95431 0 20C0 31.0457 8.95431 40 20 40C31.0457 40 40 31.0457 40 20C40 8.95431 31.0457 0 20 0Z" fill="black"/>
<path fill-rule="evenodd" clip-rule="evenodd" d="M2 20C2 29.9411 10.0589 38 20 38C29.9411 38 38 29.9411 38 20C38 10.0589 29.9411 2 20 2C10.0589 2 2 10.0589 2 20ZM20 0C8.95431 0 0 8.95431 0 20C0 31.0457 8.95431 40 20 40C31.0457 40 40 31.0457 40 20C40 8.95431 31.0457 0 20 0Z" fill="url(#paint1_linear_404_4160)"/>
<defs>
<linearGradient id="paint0_linear_404_4160" x1="3.25581" y1="33.75" x2="40.7711" y2="16.8417" gradientUnits="userSpaceOnUse">
<stop stop-color="#1CF3CA"/>
<stop offset="1" stop-color="#1C72F3"/>
</linearGradient>
<linearGradient id="paint1_linear_404_4160" x1="3.25581" y1="33.75" x2="40.7711" y2="16.8417" gradientUnits="userSpaceOnUse">
<stop stop-color="#1CF3CA"/>
<stop offset="1" stop-color="#1C72F3"/>
</linearGradient>
</defs>
</svg>
