<svg width="122" height="72" viewBox="0 0 122 72" fill="none" xmlns="http://www.w3.org/2000/svg">
<path fill-rule="evenodd" clip-rule="evenodd" d="M24.7927 69.9505C24.6923 69.9442 24.5861 69.9352 24.4769 69.926C24.3691 69.9169 24.2583 69.9075 24.1471 69.9002C23.9401 69.8985 23.7358 69.8968 23.5344 69.8952C23.4676 69.9005 23.4025 69.9084 23.34 69.9195C23.098 69.9622 22.8764 70.0296 22.6541 70.0973C22.3333 70.1949 22.0106 70.2931 21.6231 70.3181C19.4372 70.4594 17.2093 70.425 14.9996 70.3909C14.2477 70.3793 13.4976 70.3677 12.7523 70.3631L12.6411 70.3624C11.8545 70.3579 11.0687 70.3534 10.283 70.3074C10.2225 70.3037 10.1447 70.3037 10.0605 70.3037C9.86506 70.3037 9.6349 70.3036 9.50829 70.2577C9.29036 70.1784 8.21259 68.6903 7.83702 68.1717L7.77765 68.0898C7.76021 68.0658 7.74572 68.0459 7.73453 68.0306C7.29838 67.4372 6.94565 66.6217 6.6704 65.9352C6.63104 65.837 6.59646 65.7395 6.5624 65.6435C6.4476 65.3197 6.33874 65.0128 6.07282 64.7532C5.84777 64.5333 5.46714 64.395 5.12589 64.271C5.00205 64.226 4.8834 64.1828 4.77924 64.1384C4.35005 63.9554 4.00652 63.6964 3.66043 63.3871C2.34994 62.2158 2.8701 59.4933 3.36383 57.9801C3.41683 57.8177 3.50352 57.6323 3.59444 57.4379C3.78904 57.0217 4.00303 56.5641 3.94756 56.202C3.89822 55.8798 3.67129 55.5042 3.47554 55.1803C3.41802 55.0851 3.3632 54.9944 3.31637 54.9108L3.26012 54.8104C2.75448 53.9082 2.18783 52.8971 2.14372 51.8521C2.07296 50.1742 3.2256 49.6901 4.54121 49.1376L4.63846 49.0967C4.72945 49.0585 4.82475 49.0254 4.9205 48.9922C5.17236 48.9048 5.42726 48.8163 5.61451 48.629C5.8652 48.3782 5.96771 48.0698 6.07215 47.7555C6.12891 47.5847 6.18624 47.4122 6.26823 47.2463C6.45844 46.8614 6.67684 46.4923 6.89526 46.1232C7.03192 45.8922 7.16862 45.6612 7.29838 45.4264C7.60024 44.8802 7.79507 44.2844 7.99047 43.687C8.19502 43.0615 8.40019 42.4342 8.72942 41.8598C9.02373 41.3463 9.42407 40.9122 9.82268 40.4798C10.294 39.9687 10.763 39.4601 11.0513 38.8262C11.7153 37.3666 12.2396 35.8375 12.7633 34.3102C13.1256 33.2534 13.4877 32.1974 13.8955 31.1659C14.0884 30.678 14.296 30.1943 14.5166 29.715C21.6761 13.1608 39.7807 1.34145 61.0675 1.07491C61.2744 1.07132 61.4814 1.06988 61.6886 1.07042L61.8029 1.07031C87.2518 1.07031 108.31 17.5824 111.846 39.0741C111.926 39.3449 112.001 39.6197 112.069 39.9002C112.339 41.0162 112.544 42.3209 112.684 43.4647C112.712 43.6858 112.733 43.9335 112.756 44.1945C112.837 45.1215 112.932 46.2174 113.35 46.8942C113.754 47.5497 114.437 48.05 115.105 48.5388C115.481 48.8145 115.853 49.0866 116.167 49.3808C118.364 51.4414 118.676 53.4127 117.513 56.1597C117.487 56.2198 117.437 56.3202 117.378 56.4368C117.236 56.7199 117.047 57.0984 117.05 57.2261C117.052 57.3101 117.247 57.599 117.327 57.7173L117.345 57.743C117.612 58.1428 117.943 58.4762 118.268 58.8027C118.92 59.4594 119.544 60.0877 119.567 61.1703C119.597 62.6182 118.309 63.7558 117.022 64.1828C116.867 64.234 116.69 64.2768 116.506 64.3211C116.094 64.4208 115.651 64.5278 115.365 64.7537C115.11 64.955 114.939 65.6068 114.781 66.2077C114.682 66.5831 114.589 66.9386 114.483 67.152C114.205 67.7174 113.755 68.1828 113.317 68.6348C113.266 68.6885 113.214 68.7419 113.163 68.7953L112.689 68.7225C112.55 68.6298 112.357 68.5754 112.18 68.5253L112.161 68.52C112.131 68.5114 112.101 68.5029 112.071 68.4943C112.055 68.4896 112.039 68.4848 112.024 68.48C112.046 68.4868 112.068 68.4936 112.091 68.5003C112.12 68.5086 112.149 68.5169 112.179 68.5253C112.357 68.5754 112.549 68.6298 112.688 68.7225L113.162 68.7953L111.981 70.0681C111.128 70.3877 110.108 70.3615 109.149 70.3367C108.868 70.3294 108.593 70.3223 108.329 70.324C108.116 70.3254 107.903 70.3269 107.691 70.3283L107.32 70.3309C105.722 70.3422 104.125 70.3534 102.527 70.3507C102.194 70.3502 101.842 70.3601 101.482 70.3703C100.453 70.3994 99.3534 70.4305 98.43 70.2261C97.994 70.2261 97.5409 70.1557 97.0935 70.0749C81.9389 70.347 42.7754 70.0512 24.5179 69.9032C24.6081 69.9201 24.6996 69.9359 24.7927 69.9505ZM107.179 69.79C107.24 69.7856 107.301 69.7812 107.362 69.7769C107.835 69.7435 108.304 69.714 108.766 69.6976L106.793 69.8183C106.922 69.8088 107.051 69.7993 107.179 69.79ZM109.826 68.459C109.817 68.4583 109.808 68.4576 109.799 68.4571C109.463 68.46 109.128 68.4631 108.793 68.4664C108.65 68.4678 108.506 68.4692 108.363 68.4706L108.4 68.4702C108.531 68.4689 108.662 68.4676 108.793 68.4664C109.128 68.4631 109.463 68.46 109.798 68.4571C109.912 68.4643 110.069 68.4819 110.247 68.5019C110.419 68.5212 110.611 68.5427 110.805 68.5594C110.655 68.5464 110.505 68.5304 110.365 68.515L110.247 68.5019L110.215 68.4981C110.072 68.4821 109.944 68.4681 109.843 68.4603L109.826 68.459Z" fill="#FB8C06"/>
<path d="M52.2389 30.0916C55.2549 29.8721 58.1503 30.0176 61.1027 30.166L61.1034 30.166C61.9376 30.2079 62.7771 30.2501 63.6245 30.2843C64.2276 30.3087 64.8471 30.3162 65.4727 30.3239C67.3015 30.3462 69.1873 30.3692 70.8974 30.8138C71.5748 30.99 72.1008 31.363 72.6231 31.8137L72.7451 31.9267C72.8256 31.9976 72.9531 32.0977 73.099 32.2122L73.0996 32.2127C73.5006 32.5274 74.0415 32.9518 74.1363 33.1863C74.9137 33.7932 75.6859 34.4156 76.4589 35.0387C77.7759 36.1002 79.0954 37.1637 80.4471 38.156C80.6936 38.3369 80.9403 38.5206 81.1876 38.7047L81.1884 38.7053C81.7983 39.1594 82.4118 39.6161 83.0337 40.0406C83.1389 40.1125 83.2793 40.1775 83.4204 40.2428C83.6024 40.327 83.7855 40.4117 83.8952 40.5126C84.0534 40.6582 84.1128 40.766 84.1615 40.8543C84.2441 41.0041 84.2957 41.0976 84.7455 41.2237L84.753 40.7376C85.1869 40.6352 86.439 40.7229 86.8216 40.9684L86.8757 41.0045L86.8398 41.4511C87.4177 41.546 87.9999 41.6076 88.5823 41.6692C89.0832 41.7221 89.5844 41.7751 90.083 41.8494C93.4417 42.3498 97.0953 43.0175 100.326 44.0846C101.47 44.3331 102.603 44.7055 103.72 45.073C103.9 45.1322 104.08 45.1913 104.259 45.2497C104.394 45.2936 104.539 45.3364 104.689 45.3805C105.18 45.5248 105.72 45.6836 106.1 45.946C106.892 46.1413 107.661 46.5001 108.405 46.8473L108.406 46.8478L108.622 46.9487L109.656 47.4867L110.494 48.0611C110.891 48.3985 111.303 48.7335 111.717 49.0709C112.829 49.9752 113.962 50.8971 114.894 51.9323C115.192 52.2624 115.394 52.5806 115.429 53.0296C115.449 53.2872 115.414 53.3968 115.298 53.6201C115.476 54.0445 115.426 54.3083 115.253 54.7422C115.094 55.141 114.726 55.5491 114.391 55.9214C114.258 56.0691 114.131 56.2112 114.023 56.3448C113.902 56.494 113.799 56.6554 113.695 56.8164C113.572 57.007 113.45 57.1971 113.301 57.3662C111.894 57.576 110.397 57.6416 108.974 57.6122C108.197 57.5961 107.421 57.5601 106.645 57.5241L106.352 57.5105C106.247 57.5058 106.137 57.4975 106.026 57.489C105.663 57.4615 105.276 57.4322 104.944 57.517L104.93 57.8562C105.755 58.4593 110.494 58.204 111.693 58.1286C111.803 58.1217 111.985 58.0961 112.191 58.0671C112.641 58.0037 113.205 57.9243 113.38 57.99C113.4 57.9975 113.464 58.0854 113.506 58.1441C113.521 58.1649 113.534 58.1821 113.541 58.1906C113.545 58.2232 113.549 58.2567 113.552 58.2906L113.552 58.2913C113.569 58.449 113.587 58.6151 113.694 58.7316C114.32 59.2801 114.897 59.5061 115.702 59.6779L115.512 60.0647C115.128 60.1865 113.735 60.2435 112.511 60.2936C111.449 60.3371 110.515 60.3754 110.477 60.4462C110.592 61.0664 110.691 61.6598 110.692 62.2918C108.989 63.0418 107.057 63.0351 105.21 63.0286L105.04 63.0281L105.281 63.2073C105.049 63.654 104.681 63.842 104.313 64.0297C104.097 64.1397 103.882 64.2495 103.695 64.4113C103.636 64.462 103.596 64.5373 103.551 64.6217C103.489 64.7382 103.418 64.8723 103.275 64.9831C104.177 65.0024 105.078 65.0146 105.979 65.0268C107.353 65.0455 108.727 65.0641 110.101 65.1077C110.237 65.112 110.413 65.1065 110.603 65.1005C111.04 65.0869 111.552 65.0709 111.833 65.1645C111.883 65.1808 111.975 65.272 112.048 65.3434C112.077 65.3724 112.104 65.3982 112.122 65.4143L112.218 65.9521C111.852 66.3704 111.626 66.3852 111.129 66.4177C111.089 66.4204 111.047 66.4231 111.003 66.4262L107.202 66.3839C107.258 66.3991 107.315 66.4149 107.371 66.4308C107.585 66.4909 107.802 66.5517 108.021 66.5814C107.181 66.8994 106.235 66.9457 105.333 66.9899C105.21 66.9958 105.089 67.0018 104.969 67.0084C104.075 66.9511 103.216 66.9283 102.324 67.0289C102.297 67.0788 102.27 67.1274 102.245 67.1748C101.892 67.8227 101.663 68.2442 100.942 68.6267L100.077 68.9204C99.926 68.9673 99.7702 69.0195 99.6123 69.0724C98.9541 69.2931 98.2494 69.5293 97.5833 69.4732L97.5127 69.4678L95.8684 69.9387C94.6901 70.278 92.516 70.1313 91.3436 69.8033L91.3508 69.7791L89.7921 69.0038C89.3814 69.0783 88.86 68.9805 88.359 68.8866C88.0682 68.8321 87.7843 68.7789 87.533 68.7614C85.7003 68.6335 83.8232 68.5613 81.9862 68.549C78.2119 68.5243 74.4347 68.5508 70.6575 68.5772L70.6565 68.5772C67.7018 68.5979 64.7471 68.6185 61.7936 68.6148C60.3209 68.6128 58.8417 68.5907 57.3604 68.5686H57.3596C54.0045 68.5185 50.6377 68.4682 47.3071 68.6511L46.2044 68.5998C45.9219 68.7051 45.3743 68.6924 44.9085 68.6817H44.9079C44.7138 68.6772 44.5333 68.673 44.3928 68.6779C44.1132 68.6877 43.8319 68.698 43.5494 68.7084C41.0454 68.8003 38.4422 68.8959 35.9789 68.6367C34.3847 68.6528 32.9093 68.672 31.3498 69.0685C31.2163 69.1064 31.0699 69.1529 30.9154 69.2019L30.9144 69.2022L30.9135 69.2025C30.2495 69.4134 29.4368 69.6716 28.8556 69.4977L27.392 69.9605C26.5844 70.2377 25.2391 70.1024 24.4043 69.9649C23.6438 69.8456 22.9865 69.6481 22.2709 69.3672C21.1743 68.937 18.8742 67.4596 18.4125 66.3836L18.3935 66.3386C18.3709 66.3277 18.344 66.3129 18.3153 66.2971C18.2512 66.2618 18.1785 66.2217 18.126 66.2102C17.9673 66.1754 17.5769 66.258 17.2017 66.3375C16.926 66.3959 16.6585 66.4525 16.4971 66.4596C14.7169 66.5388 12.8308 66.588 11.0548 66.4596L10.9612 66.453C10.3057 66.4072 8.91332 66.3101 8.54487 65.8827L8.59346 65.437C8.70155 65.3262 8.81525 65.2428 8.96262 65.1898C9.2415 65.0892 9.62163 65.0863 9.95792 65.0837C10.0565 65.0829 10.1512 65.0822 10.2386 65.079C11.1578 65.0448 12.0774 65.017 12.9969 64.9908C13.0536 64.7928 13.0398 64.6579 13.0052 64.461C12.6081 64.2438 12.0677 64.2182 11.582 64.1952C11.4647 64.1897 11.3507 64.1843 11.2426 64.1763L11.1795 63.6755C11.6167 62.9993 12.046 62.99 12.5433 62.9791C12.7974 62.9736 13.0691 62.9677 13.3689 62.8723C13.3888 62.6247 13.5243 62.4386 13.6645 62.2461C13.6847 62.2183 13.7053 62.19 13.7254 62.1617L13.6829 62.073C13.3526 61.383 13.2224 61.1112 12.4559 60.804C11.9217 61.0518 11.4385 61.2921 11.0226 61.718C10.9663 61.7754 10.8889 61.88 10.8064 61.9915C10.6744 62.1698 10.5293 62.3659 10.4358 62.4163C10.2768 62.5017 9.71171 62.4941 9.29279 62.4885C9.12927 62.4863 8.98798 62.4844 8.90187 62.4885C8.61063 62.4611 8.29444 62.4432 7.96841 62.4247C7.11808 62.3766 6.20076 62.3246 5.48464 62.0899C5.11115 61.9668 5.04121 61.8689 4.8786 61.535L5.03147 61.3086L5.6076 60.3979L5.27146 60.1614L5.8018 59.6083L5.78796 59.6035C5.4961 59.5023 5.24176 59.4141 5.00302 59.2107L5.07365 58.9266C5.6597 58.3643 6.87074 58.3923 7.78376 58.4134C7.96888 58.4177 8.14175 58.4217 8.29467 58.4204C8.10532 58.1725 7.86858 57.9515 7.63656 57.735L7.63591 57.7344C7.5647 57.6679 7.49373 57.6017 7.42494 57.5354L6.02381 55.2452L5.6539 54.7112L5.24124 54.2141C5.23967 54.1026 5.09272 53.8725 4.9801 53.6963C4.93984 53.6332 4.90393 53.577 4.88065 53.5356C4.56131 52.9672 4.28964 52.3783 4.01953 51.7853C4.45783 51.3377 5.72885 51.0521 6.80722 50.8098C7.3215 50.6942 7.7921 50.5885 8.10749 50.4797C8.36958 50.3893 8.39206 50.3405 8.47941 50.1509C8.49408 50.119 8.51059 50.0832 8.53037 50.0425C8.52153 49.7735 8.40797 49.4802 8.30289 49.2088C8.27069 49.1257 8.23929 49.0446 8.21194 48.9669C8.09945 48.7749 8.12324 48.5542 8.14713 48.3326C8.15338 48.2746 8.15965 48.2165 8.16346 48.1589C8.177 47.8875 8.19252 47.823 8.35904 47.6084C8.32982 46.6212 8.68544 43.7918 9.34012 43.0594C9.73637 42.6162 10.011 42.6058 10.5267 42.5864L10.528 42.5863L10.5688 42.5848C10.6 42.5836 10.6321 42.5823 10.6651 42.5809L10.6433 42.3375C11.7571 42.0402 12.8801 41.7097 13.9485 41.2737C14.3074 41.1272 14.6681 40.9585 15.0318 40.7884C15.8752 40.3939 16.7346 39.9919 17.6248 39.8424C17.7688 39.8182 18.049 39.825 18.3302 39.8319C18.6686 39.8401 19.0084 39.8484 19.1132 39.8026C19.2954 39.723 19.5166 39.53 19.7281 39.3454C19.8664 39.2247 20.0006 39.1077 20.1169 39.0283C20.8322 38.5404 21.5805 38.1269 22.3495 37.7295C24.7189 36.5049 27.1436 35.384 29.5667 34.264C30.737 33.7229 31.9071 33.182 33.0702 32.6298L35.699 31.5557C35.7787 31.5226 35.857 31.4886 35.9333 31.4555L35.9346 31.4549C36.4611 31.2263 36.9208 31.0266 37.4908 31.2617C37.9045 31.2794 38.3468 31.1913 38.788 31.1034C39.1218 31.0369 39.455 30.9705 39.7748 30.9501C41.2949 30.8534 42.8075 30.7233 44.3189 30.5933C46.9511 30.367 49.5797 30.1409 52.2389 30.0916Z" fill="#1C212B"/>
<path d="M113.694 58.7316C113.694 58.7284 113.695 58.7244 113.696 58.7197C113.697 58.7152 113.698 58.71 113.699 58.7043L113.698 58.7076C113.697 58.7179 113.695 58.726 113.694 58.7316Z" fill="#1C212B"/>
<path d="M111.013 61.6019L111.041 62.0615C112.346 62.3189 113.77 62.2825 115.088 62.123C115.255 62.1029 115.427 62.0695 115.601 62.0359C115.947 61.9687 116.3 61.9003 116.635 61.9331L116.865 61.2006L116.649 61.0245L116.614 61.0438C115.854 61.4444 114.172 61.3213 113.017 61.2369C112.785 61.2199 112.575 61.2045 112.397 61.1952C112.336 61.1921 112.236 61.1793 112.123 61.1648C111.886 61.1345 111.595 61.0971 111.499 61.1294C111.244 61.2156 111.153 61.3682 111.027 61.5789L111.013 61.6019Z" fill="#1C212B"/>
<path d="M48.1019 34.5967C47.9859 34.5557 47.9105 34.529 47.7673 34.5801C47.8945 35.6725 48.1794 36.73 48.4644 37.7877C48.6025 38.3001 48.7405 38.8126 48.8607 39.3291C48.9231 39.5975 48.9776 39.901 49.0344 40.2179C49.1872 41.0696 49.3572 42.0175 49.7459 42.6378C49.7934 42.7137 49.8255 42.8001 49.8567 42.8843C49.8602 42.8939 49.8638 42.9035 49.8673 42.913C52.6945 42.8589 55.52 42.885 58.346 42.911C60.0338 42.9266 61.7218 42.9422 63.4104 42.9407C63.9207 42.9403 64.4498 42.955 64.986 42.9698C66.2383 43.0046 67.5289 43.0404 68.7072 42.8869C68.9336 42.8575 69.123 42.7755 69.2819 42.6064L69.2865 42.6015C69.3924 42.4883 69.5826 42.2849 69.58 42.129C69.5709 41.6131 68.8425 40.6479 68.2456 39.8568C67.965 39.485 67.7134 39.1516 67.5793 38.9215L65.0617 34.7373L48.5953 34.502C48.6717 34.8825 48.7322 35.2666 48.7926 35.6504C48.8596 36.0762 48.9266 36.5015 49.0152 36.9213C49.0548 37.1093 49.1246 37.3566 49.2021 37.631C49.4184 38.3976 49.6945 39.3759 49.5404 39.8641C49.2418 39.0769 49.0646 38.1754 48.8926 37.301C48.8222 36.9426 48.7526 36.5888 48.676 36.2493C48.6562 36.1619 48.6369 36.0705 48.6171 35.9769C48.5196 35.5158 48.4106 35 48.1798 34.6233C48.1515 34.6142 48.1258 34.6051 48.1019 34.5967Z" fill="#FB8C06"/>
<path d="M79.282 39.1031C79.4656 39.0968 79.68 39.0894 79.7951 39.1283C79.9869 39.193 80.2821 39.4483 80.5546 39.6839C80.7192 39.8263 80.8755 39.9615 80.9958 40.0432C81.33 40.2703 81.6672 40.4456 81.9998 40.6185C82.534 40.8963 83.0566 41.1679 83.5364 41.6385L83.4684 41.8702C83.3211 41.7932 83.1811 41.8156 83.0319 41.8394C82.9795 41.8478 82.9261 41.8563 82.8707 41.8608C82.2322 41.9126 80.2931 40.1918 79.4009 39.3999C79.2612 39.276 79.1472 39.1748 79.0679 39.1068C79.1257 39.1085 79.2009 39.1059 79.282 39.1031Z" fill="#FB8C06"/>
<path d="M84.7453 41.2235L84.7528 40.7375C85.1867 40.635 86.4388 40.7227 86.8214 40.9683L86.8755 41.0044L86.8396 41.4509C87.4175 41.5459 87.9997 41.6075 88.5821 41.669C89.0831 41.722 89.5842 41.775 90.0828 41.8493C93.4415 42.3497 97.0951 43.0174 100.326 44.0845C99.959 44.3902 99.4848 44.3898 99.0252 44.3895C98.9521 44.3895 98.8793 44.3894 98.8074 44.3906C99.4498 44.6399 100.122 44.853 100.797 45.0667C101.837 45.3963 102.881 45.7273 103.827 46.1949L103.968 46.1346C104.704 46.6868 105.467 47.013 106.262 47.3531C106.53 47.4678 106.802 47.5842 107.078 47.7113C107.915 48.0969 108.733 48.583 109.51 49.0777C109.578 49.1209 109.661 49.1701 109.751 49.2235C110.052 49.401 110.431 49.6249 110.586 49.83C110.674 49.9458 110.747 50.1359 110.814 50.3092C110.845 50.3903 110.875 50.4678 110.904 50.5322C107.388 48.5516 103.337 47.7624 99.4139 47.0094L96.4707 46.4757L96.4295 46.4327C95.9696 45.9576 95.4907 45.8169 94.9355 45.6538C94.7872 45.6102 94.6335 45.565 94.4732 45.5114C91.0818 44.3778 87.8087 44.1896 84.2739 44.1189C84.1315 44.0777 83.9774 44.0252 83.8731 43.9153C83.5461 43.5711 83.4932 43.4191 83.506 42.9512C83.5867 42.8852 83.6711 42.8178 83.7576 42.7489L83.7597 42.7473L83.7602 42.7469C84.2425 42.3625 84.7849 41.9301 85.0626 41.4069L84.7453 41.2235Z" fill="#FB8C06"/>
<path d="M74.3723 43.5428C74.6184 43.4332 74.8096 43.4536 75.0723 43.4818L75.0744 43.482C75.1364 43.4887 75.2495 43.6443 75.3229 43.7451L75.3449 43.7754L75.3544 43.7882L75.3651 43.8024L75.3713 43.8103L75.3768 43.8353C75.429 44.0751 75.4786 44.3028 75.3922 44.5416C75.2984 44.8006 75.187 44.8492 74.9889 44.9355C74.9452 44.9545 74.8972 44.9754 74.8443 45.0008C74.6024 45.0061 74.4023 44.9847 74.1679 44.9197C73.9337 44.8548 73.9073 44.8053 73.8224 44.6457C73.8069 44.6164 73.7893 44.5835 73.7682 44.5461C73.8817 44.0814 74.0347 43.869 74.3723 43.5428Z" fill="#FB8C06"/>
<path d="M112.685 53.0406C113.019 53.1902 113.187 53.4678 113.356 53.7763C113.231 54.106 113.077 54.2133 112.832 54.3843C112.792 54.4129 112.748 54.4433 112.702 54.4768L112.3 54.6448L112.058 54.5121C112.057 54.4745 112.057 54.4363 112.056 54.3977L112.056 54.3954C112.054 54.19 112.051 53.9721 112.089 53.7763C112.163 53.3923 112.344 53.2707 112.628 53.0789L112.685 53.0406Z" fill="#FB8C06"/>
<path d="M8.20386 48.1726L8.16325 48.1589C8.15943 48.2165 8.15317 48.2746 8.14691 48.3326C8.12303 48.5541 8.09923 48.7748 8.21173 48.9668L8.31179 48.6956L8.43614 48.6645L9.29683 49.5995L9.33207 49.6026C9.73597 49.6382 9.89828 49.6525 10.2936 49.4786C10.548 49.0808 10.5407 48.8829 10.5261 48.4895C10.5239 48.4319 10.5216 48.37 10.52 48.3027C10.0875 47.8531 9.52285 47.8106 8.92569 48.01C8.8647 48.0304 8.80504 48.0554 8.74572 48.0803C8.57054 48.1539 8.39826 48.2262 8.20386 48.1726Z" fill="#FB8C06"/>
<path d="M77.8306 64.0105C77.9447 63.9535 78.0644 63.8937 78.228 63.8574C79.1908 63.9577 80.1631 63.9513 81.1352 63.945L81.1377 63.945C82.6505 63.9352 84.162 63.9253 85.634 64.3164C85.1856 63.6741 84.711 63.1588 84.1911 62.5942L84.0806 62.4741C83.9997 62.3862 83.9457 62.2977 83.8925 62.2105C83.8188 62.0896 83.7467 61.9713 83.6065 61.8609C82.8991 62.3671 81.7348 62.9402 80.8631 62.9793C80.4146 62.9992 80.306 62.8987 80.0371 62.6499L80.0065 62.6216C79.9818 62.5988 79.9556 62.5748 79.9278 62.5496C79.544 62.4699 79.1623 62.5523 78.7744 62.6361C78.5453 62.6856 78.3139 62.7356 78.0787 62.7529L78.0113 62.6235L76.284 62.5593L65.5194 62.4924L46.0084 62.8943C45.9717 62.8685 45.9306 62.8366 45.8869 62.8026C45.7198 62.6725 45.5123 62.5108 45.3459 62.54C45.0017 62.6008 43.7779 63.73 43.4003 64.0785L43.3591 64.1164C44.3133 63.9018 45.2491 63.851 46.1927 63.7998C46.7289 63.7707 47.2681 63.7415 47.814 63.6819L65.1546 63.6129L71.8999 63.5401C73.251 63.5482 74.6049 63.5567 75.9555 63.6017C75.9978 63.6031 76.0421 63.6042 76.0879 63.6054C76.4914 63.6155 77.0125 63.6287 77.3114 63.8762L77.3515 64.1598C77.5529 64.1493 77.6873 64.0822 77.8306 64.0105Z" fill="#FB8C06"/>
<path d="M36.4387 62.3816L36.153 62.4047C35.6663 63.0891 35.1163 63.6592 34.5507 64.2454C34.3784 64.424 34.2045 64.6042 34.0306 64.7895C34.8757 64.5616 35.694 64.3593 36.5743 64.3203L36.6612 64.3295C37.4313 64.4111 38.1804 64.4905 38.926 64.72C38.0266 64.0741 37.0978 63.2768 36.4387 62.3816Z" fill="#FB8C06"/>
<path d="M61.1032 30.166C58.1507 30.0176 55.2554 29.8721 52.2393 30.0916C49.5802 30.1409 46.9515 30.367 44.3193 30.5933C42.8079 30.7233 41.2953 30.8534 39.7752 30.9501C39.4554 30.9705 39.1222 31.0369 38.7884 31.1034C38.3472 31.1913 37.9049 31.2794 37.4912 31.2617L27.9309 35.3847L27.9305 35.3849C27.5546 35.5739 26.9702 35.8376 26.2833 36.1474C23.9458 37.2019 20.4217 38.7916 19.8926 39.797L20.0666 39.9492C21.1107 39.7086 22.1722 39.1097 23.1898 38.5356C23.6499 38.276 24.1011 38.0214 24.5376 37.8074C24.927 37.6164 25.358 37.4293 25.7996 37.2376C26.7604 36.8206 27.7723 36.3814 28.5179 35.8318C29.5112 35.3672 30.5095 34.9148 31.5078 34.4624C32.1968 34.1502 32.8857 33.838 33.573 33.5218C33.8129 33.4114 34.0517 33.2988 34.2904 33.1863C35.2829 32.7187 36.2735 32.252 37.3318 31.9434C38.7091 31.5418 40.2725 31.4317 41.7267 31.3292L41.7285 31.3291C41.8819 31.3182 42.0341 31.3075 42.1847 31.2965L42.8501 31.2478C44.5405 31.1234 46.2456 30.998 47.9352 30.9435C48.4961 30.9254 49.0583 30.9179 49.6203 30.9105L49.6216 30.9105C50.7126 30.896 51.8042 30.8816 52.8906 30.7893C57.1793 30.776 61.3819 30.9075 65.6583 31.2216C66.0372 31.2494 66.4166 31.2727 66.795 31.2959L66.7994 31.2962C68.6165 31.4077 70.4222 31.5184 72.1596 32.1265C71.7277 32.5432 71.0887 32.8024 70.4836 33.0478C70.2596 33.1386 70.0401 33.2276 69.8376 33.322C69.9779 33.5744 70.3629 33.7493 70.7312 33.9165C70.9459 34.014 71.1549 34.109 71.3065 34.2152C71.5225 34.0963 71.5986 33.9247 71.6699 33.7638C71.7783 33.519 71.8758 33.2992 72.4382 33.328L74.0838 34.8543L79.0693 39.1066C79.1485 39.1746 79.2624 39.2756 79.4018 39.3993L79.4023 39.3997C80.2945 40.1916 82.2336 41.9124 82.8721 41.8606C82.9275 41.8561 82.9809 41.8476 83.0333 41.8392C83.1825 41.8154 83.3225 41.793 83.4698 41.87L83.1268 42.5371C83.0273 42.6156 82.925 42.7003 82.8197 42.7875L82.7834 42.8176C82.2204 43.2834 81.5815 43.8121 80.9195 43.8937C80.9099 43.9107 80.9 43.9309 80.8896 43.9522C80.8549 44.023 80.8137 44.107 80.7563 44.1325C80.6316 44.1878 80.5604 44.2362 80.4668 44.3344C80.4464 44.3233 80.424 44.31 80.4004 44.296C80.3134 44.2445 80.2093 44.1829 80.1265 44.1834L80.1001 44.2855C79.7105 44.258 79.3392 44.2104 78.9703 44.1632C78.3887 44.0887 77.8134 44.0151 77.1828 44.0221L76.9056 44.2784L76.9238 44.6797C77.4714 45.0437 78.6286 44.9794 79.4498 44.9338C79.5868 44.9261 79.7151 44.9192 79.829 44.9147C80.2052 44.9466 80.5746 44.9454 80.9417 44.9442C81.2498 44.9432 81.5563 44.9422 81.8639 44.9607C82.0582 44.9725 82.2626 44.9945 82.47 45.0168C82.8935 45.0624 83.3308 45.1095 83.7228 45.0734L96.4718 46.4756L96.4306 46.4326C95.9707 45.9575 95.4919 45.8168 94.9367 45.6537C94.7884 45.6101 94.6346 45.5649 94.4743 45.5113C91.0829 44.3776 87.8098 44.1895 84.275 44.1188C84.1327 44.0776 83.9785 44.0253 83.8742 43.9155C83.5473 43.5712 83.4943 43.4192 83.5072 42.9513C83.5886 42.8846 83.6736 42.8164 83.7609 42.7468C84.2432 42.3624 84.7856 41.9301 85.0633 41.4068L84.746 41.2234C84.2962 41.0974 84.2447 41.0039 84.1621 40.8541C84.1134 40.7658 84.0539 40.6579 83.8958 40.5124C83.786 40.4115 83.603 40.3268 83.4209 40.2426C83.2799 40.1773 83.1394 40.1123 83.0343 40.0404C82.4126 39.616 81.7993 39.1594 81.1896 38.7056L81.189 38.7052C80.9414 38.5208 80.6944 38.337 80.4476 38.1558C79.0959 37.1635 77.7765 36.1 76.4595 35.0385C75.6865 34.4155 74.9143 33.7931 74.137 33.1862C74.0421 32.9517 73.5015 32.5272 73.1005 32.2126C72.9543 32.0978 72.8265 31.9975 72.7458 31.9265L72.6235 31.8137C72.1013 31.363 71.5753 30.99 70.8979 30.8138C69.1877 30.3692 67.3023 30.3462 65.4736 30.3239C64.8479 30.3162 64.2281 30.3087 63.6249 30.2843C62.7774 30.2501 61.9383 30.2079 61.1039 30.166L61.1032 30.166Z" fill="#FAE8B6"/>
<path d="M44.8194 38.0881L44.8198 38.0912L44.8205 38.0963C44.952 39.1432 45.0845 40.1919 45.2691 41.2295L45.697 43.8186L44.2142 43.7376L39.8914 43.129C38.5379 42.7631 37.3116 42.3386 36.038 41.7483L35.6263 41.4765C34.8282 41.0639 34.1607 40.4127 33.6079 39.7175L33.6082 39.7168C33.473 39.4742 33.4536 39.2679 33.4347 38.9945C33.6152 38.5604 34.3365 38.1814 34.9389 37.8648C35.1753 37.7406 35.3934 37.626 35.5533 37.5215C35.7778 37.3747 36.03 37.2926 36.2832 37.2102L36.323 37.1972L36.3737 37.1806L36.4031 37.1708L36.677 36.8541C36.2239 36.7492 33.6951 38.1142 33.2431 38.394C32.9316 38.5868 32.5754 38.8386 32.3554 39.1349C32.3979 39.208 32.4399 39.2826 32.482 39.3572L32.4823 39.3577L32.4836 39.36L32.4839 39.3606C32.6655 39.6825 32.8505 40.0106 33.099 40.2801L33.0984 40.2804C33.6228 40.9762 34.363 41.5845 35.1213 42.0167L36.0975 42.5435L38.0442 43.3963C39.7062 43.9635 41.3876 44.3731 43.1421 44.5189C43.4453 44.5441 43.7725 44.5507 44.1047 44.5573C44.7321 44.57 45.3796 44.583 45.927 44.7223C46.1039 44.7673 46.1943 44.7353 46.3494 44.6804L46.3896 44.6663C46.6811 44.5644 47.071 44.5646 47.4208 44.5648C47.5309 44.5649 47.637 44.5649 47.7347 44.5618L47.947 44.555L47.9485 44.555H47.9492C48.7965 44.5277 49.6449 44.5004 50.4926 44.4936L61.6003 44.5323L71.0519 44.6394L72.3843 44.2647C72.8167 44.109 73.4267 43.8461 73.6321 43.409L73.508 43.2041C73.065 43.1575 72.6307 43.2977 72.1962 43.4381C71.8939 43.5358 71.5914 43.6335 71.2858 43.6683C70.6792 43.7373 69.9772 43.6485 69.3205 43.5654L69.309 43.5639C69.0974 43.5371 68.8903 43.5109 68.693 43.491L61.9311 43.4667L50.1624 43.5007C49.2305 43.6804 48.2339 43.7217 47.2605 43.7619C46.9272 43.7757 46.5967 43.7894 46.2724 43.8085L45.7467 40.6748C45.6224 39.3876 45.4073 38.1015 45.189 36.8274C45.1699 36.7157 45.1509 36.6007 45.1318 36.4842L45.1309 36.4788C45.0134 35.7646 44.8842 34.9792 44.6096 34.3456C44.4061 35.1058 44.5376 36.0196 44.6551 36.836C44.6776 36.9922 44.6995 37.1449 44.7186 37.2923C44.7528 37.5573 44.7861 37.8227 44.8194 38.0881Z" fill="#FAE8B6"/>
<path d="M14.1333 41.4935C15.1307 41.1136 16.1281 40.7337 17.1701 40.4956C17.2525 40.4768 17.3426 40.4532 17.4371 40.4284L17.4386 40.428C17.7718 40.3405 18.159 40.2389 18.4537 40.2835C17.9159 40.8695 17.0906 41.1559 16.3206 41.4231L16.3199 41.4233C16.1422 41.485 15.9673 41.5456 15.7997 41.6087C14.4415 42.1199 13.1119 42.6075 11.7286 43.0576C11.6501 43.0831 11.5469 43.1136 11.4293 43.1483C10.9339 43.2946 10.1834 43.5162 9.95076 43.7611C9.92854 43.7845 9.90073 44.0364 9.88413 44.1867C9.87875 44.2354 9.87455 44.2735 9.8721 44.2896C9.84562 44.4645 9.82351 44.6525 9.80063 44.847C9.66942 45.9628 9.51275 47.2951 8.35962 47.6083C8.3304 46.6212 8.68602 43.7918 9.3407 43.0593C9.73696 42.6161 10.0115 42.6058 10.5273 42.5864L10.589 42.584C10.614 42.583 10.6395 42.582 10.6657 42.5809C11.8653 42.3573 12.9995 41.9253 14.1333 41.4935Z" fill="#FAE8B6"/>
<path fill-rule="evenodd" clip-rule="evenodd" d="M103.72 45.073C102.603 44.7055 101.47 44.3331 100.326 44.0846C97.0954 43.0175 93.4418 42.3497 90.0831 41.8493C89.5845 41.775 89.0834 41.722 88.5824 41.6691C88 41.6075 87.4178 41.5459 86.8399 41.451L86.163 41.5094C86.4697 41.953 87.0813 42.1412 87.5842 42.2329C88.7247 42.4411 89.8616 42.6253 90.996 42.8091C93.0791 43.1467 95.1546 43.483 97.2324 43.9642C97.388 44.0002 97.5822 44.0671 97.7863 44.1373L97.7876 44.1378C98.1499 44.2625 98.5433 44.3979 98.8076 44.3907C99.45 44.64 100.123 44.8532 100.797 45.0669C101.837 45.3964 102.882 45.7274 103.828 46.1951L103.969 46.1347C104.705 46.6869 105.467 47.0131 106.262 47.3532C106.531 47.4679 106.803 47.5843 107.078 47.7114C107.915 48.0971 108.734 48.5831 109.51 49.0778C109.578 49.121 109.662 49.1702 109.752 49.2236C110.053 49.4011 110.432 49.625 110.587 49.8301C110.675 49.9459 110.748 50.136 110.814 50.3093C110.845 50.3904 110.875 50.4679 110.904 50.5323C111.378 50.8589 111.866 51.2429 112.364 51.6345C113.32 52.3853 114.311 53.1641 115.298 53.6201C115.414 53.3968 115.449 53.2871 115.429 53.0296C115.394 52.5806 115.192 52.2623 114.895 51.9322C113.962 50.8971 112.829 49.9752 111.717 49.071C111.303 48.7335 110.891 48.3985 110.494 48.061L109.657 47.4867L108.622 46.9487C108.55 46.9153 108.478 46.8817 108.406 46.8479L108.405 46.8476L108.405 46.8473C107.661 46.5001 106.892 46.1413 106.1 45.946C105.72 45.6836 105.18 45.5248 104.689 45.3805C104.539 45.3364 104.394 45.2936 104.259 45.2497C104.08 45.1913 103.9 45.1322 103.72 45.073ZM99.028 44.3895C99.1969 44.3897 99.3677 44.3898 99.5344 44.3746C99.3668 44.3899 99.1951 44.3898 99.0254 44.3896L99.028 44.3895Z" fill="#FAE8B6"/>
<path d="M42.9584 36.3318C41.7109 36.6045 40.1198 37.0661 39.1736 37.9694C39.1745 38.4714 39.3324 38.8393 39.5304 39.2918L39.7979 39.4352C39.8497 39.416 39.9031 39.3975 39.9569 39.3789C40.1047 39.3277 40.256 39.2753 40.3893 39.2027C40.6086 39.2832 40.8822 39.3388 41.1588 39.395C41.5209 39.4686 41.8883 39.5433 42.1465 39.6763C42.1706 39.6887 42.1939 39.7017 42.216 39.7153L43.0685 40.2556L43.2498 40.1652C43.5179 39.6183 43.2572 38.1097 43.0779 37.0723C43.0266 36.7759 42.9821 36.5179 42.9584 36.3318Z" fill="#FAE8B6"/>
<path d="M52.5492 48.091C52.1261 47.6778 50.9453 47.6973 49.9434 47.7139C49.4707 47.7217 49.0376 47.7289 48.7428 47.6896C48.587 48.0472 48.571 48.1124 48.626 48.4971C49.0348 48.7207 51.7915 48.6691 52.3636 48.5089L52.4187 48.4923L52.5492 48.091Z" fill="#FAE8B6"/>
<path d="M69.2662 33.6687L72.2122 35.9671C72.414 36.1512 72.6162 36.3354 72.8185 36.5195L73.2196 36.8848C74.6809 38.2165 76.1442 39.55 77.5905 40.8954C77.8879 41.1721 78.1846 41.461 78.4834 41.752C79.2625 42.5108 80.0571 43.2848 80.9195 43.8937C80.91 43.9105 80.9001 43.9301 80.8897 43.9512L80.8896 43.9522C80.8549 44.023 80.8137 44.107 80.7563 44.1325C80.6316 44.1878 80.5604 44.2362 80.4668 44.3344C80.4464 44.3233 80.424 44.31 80.4004 44.296C80.3134 44.2445 80.2093 44.1829 80.1265 44.1834L76.7472 41.0506L73.0321 37.5232L70.8698 35.6693C70.682 35.4963 70.402 35.2971 70.106 35.0865C69.5452 34.6875 68.9268 34.2476 68.7685 33.8672L69.2662 33.6687Z" fill="#FAE8B6"/>
<path d="M66.9007 34.7878L65.9852 34.6973L65.8402 34.9142C67.0436 37.6465 68.9629 40.3464 70.9101 42.6061H71.1621C71.1751 42.5881 71.1876 42.5711 71.1996 42.5548L71.224 42.5219C71.3671 42.3288 71.4294 42.2447 71.3794 41.954C71.3417 41.7345 71.2442 41.5371 71.1494 41.3453C71.0007 41.0442 70.8588 40.757 70.9663 40.42C71.1524 40.5176 71.232 40.6327 71.3118 40.7483C71.4069 40.8859 71.5025 41.0242 71.7791 41.1346L71.9455 40.934C71.8117 40.6403 71.6352 40.4396 71.4142 40.2072L71.4064 40.2031C71.3358 40.1082 71.2551 40.0131 71.1731 39.9167C70.9606 39.6665 70.7399 39.4068 70.6685 39.1164C70.5523 38.6451 70.2209 38.2616 69.9047 37.8956C69.8552 37.8383 69.8061 37.7815 69.7583 37.7249C68.8744 36.6772 67.9179 35.7057 66.9007 34.7878Z" fill="#FAE8B6"/>
<path d="M5.6543 54.711C6.478 54.6348 7.31821 54.6584 8.15435 54.6819L8.15495 54.6819C8.54637 54.6929 8.9371 54.7039 9.32462 54.7045C9.82326 54.7054 10.3457 54.691 10.88 54.6764C12.7759 54.6245 14.8225 54.5684 16.4923 55.1695C15.697 55.4183 14.7467 55.3632 13.8667 55.3122C13.6377 55.299 13.4134 55.286 13.1978 55.2787C12.6581 55.2604 12.1181 55.2453 11.578 55.2303L11.5764 55.2302C10.6133 55.2033 9.64973 55.1764 8.68771 55.1315C8.48414 55.122 8.2757 55.1021 8.06541 55.0821C7.36883 55.0157 6.65172 54.9474 6.0242 55.245L5.6543 54.711Z" fill="#FAE8B6"/>
<path d="M13.7685 59.2695C14.189 59.2106 14.5034 59.2341 14.9157 59.3139C15.338 59.8013 15.6579 60.7645 15.7517 61.4013L15.5878 61.6019H15.1772C14.7116 61.4534 14.468 61.1222 14.2247 60.7913C14.0111 60.5008 13.7976 60.2106 13.4343 60.0443C13.3074 59.9866 13.19 59.9158 13.0714 59.8444L13.034 59.8218L12.9909 59.796C13.1448 59.5302 13.3421 59.4484 13.5915 59.3451C13.6478 59.3218 13.7069 59.2973 13.7685 59.2695Z" fill="#FAE8B6"/>
<path d="M103.04 63.4616C102.733 63.966 102.288 64.6964 102.332 65.0442L103.276 64.9832C103.418 64.8723 103.49 64.7382 103.552 64.6216C103.597 64.5372 103.637 64.4619 103.695 64.4112C103.883 64.2494 104.098 64.1396 104.314 64.0296C104.682 63.8419 105.05 63.6539 105.282 63.2072L105.041 63.028L103.25 63.1088C103.199 63.2007 103.125 63.3226 103.04 63.4616Z" fill="#FAE8B6"/>
<path d="M102.491 66.1854C103.654 66.3527 104.88 66.3618 106.08 66.3707C106.458 66.3735 106.833 66.3763 107.202 66.384C107.258 66.3991 107.315 66.415 107.371 66.4308C107.585 66.491 107.802 66.5518 108.021 66.5814C107.181 66.8995 106.235 66.9457 105.333 66.9899C105.211 66.9959 105.089 67.0018 104.969 67.0084C104.075 66.9511 103.216 66.9281 102.324 67.0287L102.323 66.5557L101.942 66.3593C102.046 66.2783 102.216 66.2434 102.365 66.2129C102.41 66.2037 102.453 66.195 102.491 66.1854Z" fill="#FAE8B6"/>
<path d="M30.7405 68.4536C30.1488 68.8521 29.5492 69.2558 28.8554 69.4977C29.4365 69.6716 30.2493 69.4135 30.9133 69.2026C31.0685 69.1533 31.2155 69.1066 31.3496 69.0686C32.9091 68.6721 34.3845 68.6528 35.9787 68.6368C38.442 68.8959 41.0451 68.8004 43.5491 68.7084L43.5585 68.7081C43.8378 68.6978 44.116 68.6876 44.3926 68.678C44.5334 68.6731 44.7137 68.6772 44.9082 68.6817C45.3741 68.6925 45.9217 68.7052 46.2042 68.5998L47.3069 68.6513C50.6376 68.4683 54.0043 68.5186 57.3596 68.5687C58.8411 68.5909 60.3205 68.6129 61.7934 68.6149C64.7467 68.6187 67.7014 68.598 70.6561 68.5773C74.4337 68.5509 78.2113 68.5245 81.986 68.5491C83.823 68.5614 85.7001 68.6336 87.5327 68.7615C87.7841 68.779 88.068 68.8322 88.3588 68.8868C88.8598 68.9807 89.3812 69.0784 89.7919 69.0039C89.7047 68.9384 89.595 68.8513 89.4712 68.753C88.9792 68.3625 88.2651 67.7956 87.8629 67.7058C87.2029 67.5582 86.3218 67.6017 85.5229 67.6412C85.2013 67.6571 84.8928 67.6724 84.6176 67.6742C82.7821 67.6858 80.9471 67.6833 79.112 67.6807H79.1105C78.6635 67.6801 78.216 67.6795 77.769 67.679C74.6035 67.6763 71.4369 67.6681 68.2699 67.6598H68.252C60.7654 67.6403 53.2765 67.6209 45.7945 67.6742C45.4423 67.5895 44.9036 67.6193 44.4198 67.6462C44.2008 67.6583 43.9929 67.6699 43.8187 67.6699L43.5935 67.6699C41.7155 67.6704 39.8378 67.6709 37.9599 67.6961C37.5527 67.687 37.1454 67.6786 36.738 67.6701C35.6533 67.6476 34.5684 67.625 33.4841 67.5912C33.4212 67.5892 33.3094 67.5787 33.1785 67.5664C32.8577 67.5362 32.4219 67.4952 32.3086 67.542C31.7548 67.7706 31.2505 68.1102 30.7405 68.4536Z" fill="#FAE8B6"/>
<path d="M102.323 66.5557L101.942 66.3593L101.909 66.3885C100.528 67.6178 99.2462 68.759 97.5128 69.4678L97.5834 69.4731C98.2495 69.5292 98.9539 69.2931 99.6121 69.0725C99.7703 69.0195 99.9258 68.9674 100.077 68.9204L100.942 68.6266C101.663 68.2442 101.892 67.8227 102.245 67.1747L102.278 67.1132L102.324 67.0287L102.323 66.5557Z" fill="#FAE8B6"/>
<path d="M13.8334 62.307C13.798 62.2589 13.7623 62.2104 13.7257 62.1616L13.7116 62.1813L13.6973 62.2011L13.6649 62.2456C13.5247 62.4381 13.389 62.6245 13.3691 62.8722C13.0694 62.9675 12.7976 62.9734 12.5436 62.979C12.0462 62.9898 11.617 62.9992 11.1797 63.6753L11.2428 64.1762C11.3509 64.1841 11.4649 64.1895 11.5822 64.195C12.0679 64.218 12.6083 64.2436 13.0054 64.4608C13.04 64.6578 13.0538 64.7926 12.9971 64.9906C14.5665 64.9804 16.1608 64.9729 17.7103 65.2533C17.5708 64.9605 17.4503 64.6377 17.3298 64.3146C17.1665 63.877 17.003 63.4387 16.7915 63.0734C16.5351 63.0731 16.2961 63.1244 16.0578 63.1756C15.745 63.2428 15.4334 63.3097 15.0848 63.2596C14.4701 63.171 14.1701 62.7638 13.8334 62.307Z" fill="#FAE8B6"/>
<path fill-rule="evenodd" clip-rule="evenodd" d="M26.9738 52.0462C25.4386 51.8365 23.9063 51.8238 22.4809 52.5255C20.4006 53.6548 18.9286 54.9316 18.235 57.2753C17.7955 58.7602 17.9174 60.3488 18.3093 61.8267C19.2318 63.9874 20.5319 65.7596 22.7905 66.6676C24.4536 67.3365 26.5966 67.2482 28.2322 66.5371C29.8704 65.8248 32.0109 64.096 32.6296 62.3602L32.6544 62.2681C33.0629 61.0032 32.9651 59.6857 32.8614 58.3807C32.6521 57.1168 32.2877 55.9754 31.5337 54.925C30.4362 53.3965 28.8306 52.3564 26.9738 52.0462ZM27.3754 52.9188C25.7542 52.508 24.2013 52.4752 22.6159 53.0569C21.0876 54.0021 19.3452 55.3479 18.9066 57.1929C18.5835 58.5515 18.6488 60.077 18.9596 61.4287C19.8703 63.3432 21.1581 64.8574 23.2023 65.5739C24.8609 66.155 26.6532 66.1748 28.2462 65.4037C29.8236 64.6396 30.8597 63.4175 31.8052 61.9909C32.1366 60.9907 32.1383 60.0706 32.1403 59.0338C32.1335 58.9987 32.1267 58.9447 32.1199 58.8909C32.1133 58.838 32.1066 58.7853 32.1001 58.751C32.0592 58.5357 32.028 58.3225 31.997 58.1114C31.9137 57.5425 31.8326 56.9888 31.57 56.4517C30.6968 54.6656 29.2292 53.5627 27.3754 52.9188Z" fill="#FAE8B6"/>
<path fill-rule="evenodd" clip-rule="evenodd" d="M90.0486 53.6977C89.3049 54.2173 88.5986 54.8867 88.0463 55.608C86.932 57.2174 86.5685 58.9956 86.9205 60.9341C87.3256 63.1648 88.3968 65.0152 90.2798 66.2914C90.7705 66.6236 91.2585 66.8355 91.8257 66.9987L91.8371 66.9941C92.3026 67.1899 92.8199 67.3011 93.3191 67.3637C95.7275 67.6677 97.5985 66.8307 99.4547 65.3812C100.955 64.1772 101.975 62.449 102.443 60.603L101.78 60.5506C101.233 62.5015 100.249 63.9035 98.5883 65.0582C96.7226 66.047 95.0671 66.7585 92.9119 66.3599L92.8887 66.3694C91.6163 66.0334 90.566 65.3378 89.6564 64.4014C88.1817 62.8834 87.5739 61.2963 87.5969 59.2132C87.7157 58.8729 87.8318 58.585 88.0357 58.2838L88.3438 58.3202C88.241 59.4289 88.2373 60.6018 88.5738 61.6688C88.9612 62.8979 90.2492 64.5401 91.3558 65.2175C92.5222 65.9318 94.4716 66.0667 95.7874 65.7263C97.4172 65.3047 99.7449 63.7347 100.602 62.2638C101.425 60.8517 101.382 59.1988 100.947 57.661C100.447 55.8877 99.2157 54.6602 97.6425 53.8003C97.6126 53.8315 97.584 53.8593 97.5571 53.8856L97.5773 53.8651C97.5863 53.8563 97.5954 53.8473 97.6046 53.8381C97.6167 53.826 97.6291 53.8134 97.6417 53.8003L97.6284 53.7757C97.0653 53.5597 96.4774 53.4335 95.8893 53.3072L95.7525 53.2778L95.6651 53.2589C94.1942 53.0142 92.6627 52.9892 91.3967 53.9432C91.2474 54.0561 91.126 54.223 91.0259 54.3782L91.1656 54.5548C92.567 53.872 93.5943 53.4254 95.1402 53.9031C96.0249 53.9437 97.0456 54.199 97.2753 54.2565C97.2962 54.2618 97.3106 54.2653 97.3177 54.267C97.321 54.2677 97.3228 54.268 97.3228 54.268C97.355 54.0821 97.4403 53.9988 97.5563 53.8856L97.5571 53.8856C97.4411 53.9988 97.3557 54.0821 97.3236 54.268C98.725 54.9197 99.8203 56.0546 100.358 57.5202C100.824 58.7921 101.01 60.4862 100.405 61.7469C99.7786 63.0498 97.8779 64.54 96.5172 65.0125C95.1725 65.4797 93.2917 65.6434 91.969 65.004C90.7773 64.4271 89.4048 62.8294 88.9837 61.5912C88.5856 60.4199 88.5658 58.8414 89.1362 57.7166C89.6665 56.6716 90.4504 55.9471 91.3386 55.2108C91.3163 55.2065 91.2946 55.2021 91.2735 55.1978L91.2423 55.1914C90.9741 55.1364 90.7882 55.0983 90.5253 55.283C89.9463 55.6897 89.3529 56.3987 88.9158 56.9536C88.911 56.9595 88.9034 56.97 88.894 56.9828C88.858 57.0319 88.7965 57.1158 88.7752 57.1157C88.5997 56.8455 88.3985 56.7534 88.1106 56.6234L88.4405 56.0175L88.7318 55.6834C89.9085 54.4104 91.6443 52.9909 93.3988 52.7287C93.8788 52.657 94.3955 52.6652 94.9055 52.6734C95.1999 52.6781 95.4921 52.6827 95.7739 52.6719L95.8974 52.8299C97.5802 52.8575 99.1266 54.0454 100.243 55.2017C101.213 56.2077 101.566 57.2415 101.801 58.6027C102.128 58.31 102.275 58.1115 102.425 57.6925C102.291 57.1157 102.146 56.5426 101.871 56.015C100.825 54.0165 98.9104 52.8472 96.8225 52.2084C94.1788 51.7377 92.2681 52.1478 90.0486 53.6977ZM93.1728 67.1532L93.1254 67.125C93.0516 67.0835 92.9673 67.0535 92.8766 67.032C92.9671 67.0535 93.0511 67.0836 93.1249 67.1251L93.1728 67.1532ZM93.9274 67.0208L93.8874 67.0215L93.8534 67.0219C93.8239 67.0223 93.7942 67.0228 93.7645 67.0234C93.794 67.0228 93.8235 67.0224 93.8528 67.022C93.8941 67.0214 93.935 67.0209 93.9751 67.0197C93.9593 67.0201 93.9434 67.0205 93.9274 67.0208ZM91.9175 66.9921L91.8808 66.9931L91.8564 66.9937C91.9027 66.9927 91.9515 66.991 92.0018 66.9894L91.9949 66.9895L91.9463 66.9912L91.9175 66.9921Z" fill="#FAE8B6"/>
<path d="M102.444 60.6028C102.535 59.6151 102.501 58.6797 102.426 57.6925C102.276 58.1115 102.129 58.31 101.802 58.6027C101.804 58.741 101.809 58.8805 101.813 59.0206C101.829 59.5312 101.845 60.0504 101.781 60.5504L102.444 60.6028Z" fill="#FAE8B6"/>
<path d="M109.384 41.2017H105.816V35.6202H102.518V32.5758H96.4711V29.5313H93.1729V31.5609H91.5237V29.5313H88.2255L86.5764 25.9794H84.9273V18.3683H81.0793V23.9498H79.4302V14.8164L75.5822 15.8312V21.4127H73.9331V19.8905H72.284V23.9498H70.6349V15.3238H66.7869V16.3386H64.5881V21.4127H63.4887L61.8395 20.3979L61.2898 16.846L60.7401 20.3979L59.091 21.4127V13.8016H55.7928V11.7719L49.746 14.8164V16.846H45.3483V20.3979H36.553V29.5313H33.2547V25.472H31.0559V30.5461H29.4068V28.5165H23.9097V33.0832H16.7635V38.6647H14.1035C18.068 18.8236 37.7957 3.74561 61.5354 3.74561C86.2772 3.74561 106.661 20.1233 109.384 41.2017Z" fill="#FAE8B6"/>
</svg>
