<svg width="87" height="31" viewBox="0 0 87 31" fill="#000000" xmlns="http://www.w3.org/2000/svg">
<path fill-rule="evenodd" clip-rule="evenodd" d="M44.7568 9.57038L48.8813 9.30541C48.9753 9.97565 49.1479 10.4744 49.4301 10.8329C49.8849 11.3941 50.5122 11.6746 51.3433 11.6746C51.955 11.6746 52.4411 11.5343 52.7704 11.2382C53.0841 11.0044 53.2723 10.6303 53.2723 10.2406C53.2723 9.86654 53.0998 9.50804 52.8018 9.27423C52.4881 8.99367 51.7511 8.7131 50.5906 8.46371C48.6931 8.04286 47.3287 7.48173 46.5289 6.76473C45.7291 6.0945 45.2744 5.11252 45.3057 4.06819C45.3057 3.35119 45.5253 2.63419 45.933 2.04189C46.4035 1.37165 47.0464 0.841695 47.8149 0.545543C48.646 0.187043 49.8065 0 51.2649 0C53.0527 0 54.417 0.327326 55.358 0.997564C56.2989 1.65222 56.8635 2.71213 57.036 4.16171L52.9586 4.39552C52.8488 3.77204 52.6293 3.32002 52.2686 3.02387C51.9079 2.72772 51.4374 2.58743 50.8258 2.58743C50.324 2.58743 49.9476 2.69654 49.6967 2.89917C49.4615 3.08622 49.3047 3.36678 49.3204 3.67852C49.3204 3.91232 49.4458 4.13054 49.634 4.27082C49.8379 4.45787 50.324 4.62932 51.0924 4.78519C52.99 5.19045 54.3386 5.59571 55.1698 6.01656C56.0009 6.43741 56.5969 6.95178 56.9576 7.55967C56.9894 7.61242 57.0199 7.66585 57.049 7.71989C57.7867 5.90172 59.0868 4.18627 60.8664 2.85333C65.3143 -0.478166 71.2476 -0.289079 74.0847 3.45299C76.9219 7.19505 75.4696 12.916 71.0217 16.2475C70.8241 16.3955 70.6236 16.5365 70.4206 16.6706C71.9714 16.9046 73.2204 17.489 74.1608 18.4238C74.7933 19.0524 75.2704 19.8079 75.588 20.69V16.8027H79.9319V27.3083H86.6909V30.7375H75.588V26.8325C75.4845 27.1284 75.3641 27.4064 75.2272 27.6668C74.694 28.6956 73.8629 29.5373 72.8435 30.0984C71.7928 30.6751 70.4912 30.9713 68.9387 30.9713C67.3548 30.9713 66.0532 30.7219 65.0182 30.2231C63.9518 29.6931 63.0736 28.867 62.4933 27.8539C61.8504 26.7628 61.521 25.4067 61.521 23.7701C61.521 21.5615 62.1267 19.8227 63.3236 18.5679C61.1202 18.3641 59.1256 17.3918 57.8033 15.6479C57.0874 14.7036 56.6446 13.6334 56.4542 12.5073C55.9718 13.0809 55.362 13.5318 54.668 13.8256C53.7741 14.2153 52.645 14.4179 51.2963 14.4179C48.9126 14.4179 47.266 13.9659 46.3407 13.0463C45.4155 12.1266 44.8666 10.9732 44.7568 9.57038ZM0.987975 14.1685V0.249391H8.21745C9.55043 0.249391 10.5854 0.3585 11.2911 0.592304C11.9812 0.810521 12.5928 1.26254 13.0005 1.87043C13.4553 2.54067 13.6748 3.32002 13.6592 4.13054C13.7062 5.50219 13.0005 6.8115 11.793 7.49732C11.3225 7.7623 10.805 7.94934 10.2718 8.04286C10.6639 8.15197 11.0559 8.33902 11.4009 8.55723C11.6675 8.77545 11.8871 9.02484 12.0909 9.28982C12.3262 9.5548 12.53 9.85095 12.7025 10.1627L14.8039 14.1997H9.87975L7.55879 9.9133C7.26083 9.36775 7.00992 9.00925 6.77469 8.8378C6.46104 8.61958 6.08467 8.51047 5.7083 8.51047H5.33193V14.1685H0.987975ZM5.33193 5.89187H7.16674C7.55879 5.86069 7.93517 5.79834 8.31154 5.70482C8.59382 5.65806 8.84473 5.50219 9.01723 5.26839C9.44065 4.70726 9.37792 3.91232 8.86041 3.42913C8.57813 3.19532 8.02926 3.07063 7.24515 3.07063H5.33193V5.89187ZM0 26.1237L4.1244 25.8587C4.2185 26.529 4.391 27.0278 4.67328 27.3863C5.11238 27.9474 5.75535 28.2435 6.5865 28.2435C7.19811 28.2435 7.68425 28.1033 8.01358 27.8071C8.32722 27.5577 8.51541 27.1992 8.51541 26.8095C8.51541 26.4355 8.3429 26.077 8.04494 25.8432C7.7313 25.5626 6.99424 25.282 5.81808 25.0326C3.92054 24.6118 2.55619 24.0507 1.7564 23.3337C0.956611 22.6634 0.501829 21.6814 0.533193 20.6371C0.533193 19.9201 0.752743 19.2031 1.16048 18.6108C1.63094 17.9406 2.27391 17.4106 3.04234 17.1145C3.87349 16.756 5.03397 16.5689 6.49241 16.5689C8.28017 16.5689 9.64452 16.8962 10.5854 17.5665C11.2457 18.0368 11.7129 18.6913 11.9925 19.5407C12.2359 19.1288 12.5248 18.7564 12.8594 18.4238C14.0983 17.1924 15.839 16.5689 18.0972 16.5689C19.8693 16.5689 21.2493 16.9274 22.2687 17.6288C23.2723 18.3458 24.0251 19.4369 24.5269 20.9021L20.7005 21.7438C20.6064 21.4165 20.4652 21.0891 20.277 20.8086C20.0418 20.4813 19.7439 20.2319 19.3832 20.0448C19.0225 19.8578 18.6147 19.7798 18.207 19.7798C17.219 19.7798 16.4663 20.1695 15.9488 20.9645C15.5567 21.5412 15.3529 22.4608 15.3529 23.7078C15.3529 25.2509 15.5881 26.3108 16.0585 26.8875C16.529 27.4642 17.1877 27.7448 18.0502 27.7448C18.8813 27.7448 19.5086 27.511 19.932 27.0589C20.3555 26.5757 20.6691 25.9055 20.8573 25.0326L24.6524 26.1705C24.4485 27.1213 24.0251 28.0253 23.4448 28.8203C22.9116 29.5217 22.206 30.0672 21.4062 30.4257C20.5907 30.7842 19.5557 30.9713 18.3011 30.9713C16.7799 30.9713 15.5254 30.753 14.5687 30.3166C13.6744 29.9152 12.8995 29.2237 12.2318 28.2541C12.1563 28.4 12.0726 28.5422 11.9812 28.68C11.4636 29.4437 10.7423 30.036 9.89543 30.3945C9.00155 30.7842 7.87244 30.9868 6.52377 30.9868C4.14009 30.9868 2.49346 30.5348 1.56821 29.6152C0.642968 28.68 0.125457 27.5265 0 26.1237ZM8.1704 20.9644L11.436 20.7772C11.2159 21.4431 11.0812 22.1833 11.0311 22.9967C10.8335 22.8625 10.617 22.7358 10.3816 22.6167C9.55043 22.1958 8.20176 21.7906 6.30422 21.3853C5.5358 21.2294 5.04965 21.058 4.84578 20.8709C4.6576 20.7306 4.53214 20.5124 4.53214 20.2786C4.51646 19.9669 4.6576 19.6863 4.90851 19.4993C5.15943 19.2811 5.5358 19.1719 6.03763 19.1719C6.64923 19.1564 7.13538 19.2966 7.48038 19.5928C7.84107 19.8889 8.06062 20.341 8.1704 20.9644ZM29.7177 16.8027H34.046V21.6814H38.782V16.8027H43.1416V20.4337C43.4568 19.6742 43.8963 19.0141 44.4589 18.455C45.7291 17.1924 47.5169 16.5533 49.7908 16.5533C52.1274 16.5533 53.9152 17.1768 55.1854 18.4238C56.4557 19.6707 57.083 21.4165 57.083 23.661C57.083 25.2976 56.8007 26.6225 56.2518 27.6668C55.7186 28.6956 54.8875 29.5373 53.8681 30.0984C52.8174 30.6751 51.5158 30.9713 49.9633 30.9713C48.3794 30.9713 47.0778 30.7219 46.0428 30.2231C44.9764 29.6931 44.0982 28.867 43.5179 27.8539C43.3775 27.6155 43.252 27.3645 43.1416 27.1007V30.7375H38.782V25.095H34.046V30.7375H29.7177V16.8027ZM47.658 26.8251C47.1405 26.2017 46.8739 25.1885 46.8739 23.7857C46.8739 22.3673 47.1405 21.3541 47.6737 20.7462C48.2069 20.1383 48.9753 19.7954 49.7751 19.8266C50.6847 19.8266 51.4061 20.1228 51.9392 20.7306C52.4724 21.323 52.739 22.2893 52.739 23.5986C52.739 25.1573 52.4881 26.2328 51.9706 26.8407C51.4531 27.4486 50.7317 27.7448 49.8065 27.7448C48.8969 27.7448 48.1755 27.433 47.658 26.8251ZM66.6334 26.8251C66.1159 26.2017 65.8493 25.1885 65.8493 23.7857C65.8493 22.3673 66.1159 21.3541 66.6491 20.7462C67.1666 20.1383 67.9507 19.7954 68.7505 19.8266C69.6601 19.8266 70.3814 20.1228 70.9146 20.7306C71.4478 21.323 71.7144 22.2893 71.7144 23.5986C71.7144 25.1573 71.4635 26.2328 70.946 26.8407C70.4285 27.4486 69.7071 27.7448 68.7819 27.7448C67.8723 27.7448 67.1509 27.433 66.6334 26.8251ZM61.2439 3.35126C56.9765 6.54757 55.7414 11.8923 58.3043 15.2726C60.8672 18.653 66.3767 18.9459 70.6441 15.7496C74.9115 12.5533 76.1467 7.20855 73.5838 3.82821C71.0209 0.447875 65.5113 0.154947 61.2439 3.35126ZM63.1049 7.43498L61.5367 8.52606L63.7322 11.5967C63.9047 11.7993 64.0145 12.0643 64.0616 12.3293C64.0772 12.5163 63.9675 12.7034 63.8106 12.7969C63.7322 12.8592 63.6225 12.906 63.5127 12.906C63.3715 12.906 63.2461 12.8592 63.1363 12.7813C62.9795 12.6566 62.8384 12.5007 62.7286 12.3293L61.3799 13.5762C61.6308 13.9191 61.9602 14.1841 62.3365 14.3712C62.6815 14.527 63.0579 14.5894 63.4186 14.527C63.795 14.4647 64.2341 14.2621 64.7516 13.9036C65.1907 13.623 65.52 13.2333 65.7239 12.7657C65.8807 12.3916 65.9121 11.9708 65.8023 11.5811C65.6141 11.0667 65.3632 10.5991 65.0339 10.1627L63.1049 7.43498ZM67.6684 9.13395L66.2414 10.2562C66.6021 10.7082 67.1039 11.02 67.7155 11.1135C68.2801 11.207 68.9857 10.9576 69.8483 10.3653C70.2717 10.0848 70.6324 9.72626 70.9147 9.30541C71.1342 8.9625 71.244 8.57282 71.2283 8.16756C71.2126 7.77789 71.0872 7.4038 70.8676 7.09206C70.6951 6.82709 70.4442 6.60887 70.1462 6.48417C69.8169 6.34389 69.4562 6.31272 69.1112 6.37506C68.7035 6.43741 68.1076 6.62446 67.3234 6.95178C67.0098 7.09206 66.7903 7.15441 66.6648 7.13882C66.555 7.13882 66.4609 7.07648 66.3982 6.99854C66.3198 6.88943 66.2884 6.74915 66.3355 6.62446C66.3982 6.453 66.508 6.31272 66.6648 6.21919L66.7118 6.17243C67.0725 5.89187 67.6057 5.9698 67.888 6.3283L69.2994 5.22163C68.8603 4.73843 68.3898 4.50463 67.888 4.50463C67.3862 4.50463 66.8059 4.72285 66.1473 5.17487C65.7082 5.45543 65.3475 5.81393 65.0495 6.23478C64.8457 6.53093 64.7516 6.88943 64.7516 7.24793C64.7673 7.55967 64.8613 7.87141 65.0495 8.13639C65.3004 8.52606 65.7239 8.75987 66.1786 8.80663C66.6491 8.85339 67.2764 8.72869 68.0762 8.40137C68.5623 8.19874 68.8917 8.1208 69.0798 8.13639C69.1269 8.13639 69.1739 8.15198 69.221 8.16756C69.5033 8.26108 69.6601 8.57282 69.566 8.85339C69.5033 9.07161 69.3464 9.24306 69.1583 9.36776C68.8917 9.57039 68.5623 9.63274 68.2487 9.53922C68.0291 9.46128 67.8253 9.321 67.6684 9.13395Z"/>
</svg>
